<svg xmlns="http://www.w3.org/2000/svg" version="1.1" xmlns:xlink="http://www.w3.org/1999/xlink" xmlns:svgjs="http://svgjs.com/svgjs" width="1440" height="560" preserveAspectRatio="none" viewBox="0 0 1440 560"><g mask="url(&quot;#SvgjsMask1206&quot;)" fill="none"><g mask="url(&quot;#SvgjsMask1207&quot;)"><path d="M125 275L135 265L145 255L155 255M245 285L255 275L265 275L275 285L285 285L295 285M205 275L215 285L225 285M325 295L335 285L345 285L355 285L365 285L375 285M385 295L395 295M115 275L125 265M165 275L175 265M315 295L325 305L335 305L345 305L355 305M365 295L375 305L385 305L395 305M235 285L245 275L255 265L265 265L275 265L285 275L295 275M-5 285L5 285L15 285L25 285L35 285L45 275L55 275L65 275L75 275L85 275L95 275L105 275L115 275L125 275L135 275L145 275L155 275L165 275L175 275L185 275L195 275L205 275L215 275L225 275L235 285L245 285L255 285L265 285L275 295L285 295L295 295L305 295L315 295L325 295L335 295L345 295L355 295L365 295L375 295L385 295L395 285" stroke="rgba(8, 215, 23, 1)" stroke-width="1.67"></path><path d="M392.5 285 a2.5 2.5 0 1 0 5 0 a2.5 2.5 0 1 0 -5 0zM152.5 255 a2.5 2.5 0 1 0 5 0 a2.5 2.5 0 1 0 -5 0zM292.5 285 a2.5 2.5 0 1 0 5 0 a2.5 2.5 0 1 0 -5 0zM222.5 285 a2.5 2.5 0 1 0 5 0 a2.5 2.5 0 1 0 -5 0zM372.5 285 a2.5 2.5 0 1 0 5 0 a2.5 2.5 0 1 0 -5 0zM392.5 295 a2.5 2.5 0 1 0 5 0 a2.5 2.5 0 1 0 -5 0zM122.5 265 a2.5 2.5 0 1 0 5 0 a2.5 2.5 0 1 0 -5 0zM172.5 265 a2.5 2.5 0 1 0 5 0 a2.5 2.5 0 1 0 -5 0zM352.5 305 a2.5 2.5 0 1 0 5 0 a2.5 2.5 0 1 0 -5 0zM392.5 305 a2.5 2.5 0 1 0 5 0 a2.5 2.5 0 1 0 -5 0zM292.5 275 a2.5 2.5 0 1 0 5 0 a2.5 2.5 0 1 0 -5 0z" fill="rgba(8, 215, 23, 1)"></path><path d="M215 245L225 255M295 265L305 255M405 265L415 275L425 275L435 275L445 275L455 275L465 275L475 275M555 255L565 265L575 265L585 265L595 265L605 265L615 265M675 255L685 265L695 265L705 265M375 265L385 275L395 275L405 275L415 285L425 285L435 285L445 285L455 285L465 285M345 265L355 275L365 275L375 275M185 245L195 255L205 265L215 265L225 265M95 255L105 265L115 265M165 245L175 255L185 255L195 265M515 255L525 265L535 265L545 265M495 265L505 275L515 275L525 275L535 275L545 275L555 275L565 275L575 275L585 275M425 265L435 255L445 255L455 255L465 255L475 255L485 255L495 255M365 265L375 255L385 255L395 255L405 255L415 255L425 255L435 245L445 245L455 245M335 265L345 255L355 255L365 255L375 245L385 245L395 245L405 245L415 245L425 245M275 255L285 255L295 255L305 245L315 245L325 245L335 245L345 245L355 245L365 245M655 255L665 265L675 265L685 275L695 275L705 275L715 275L725 275M-5 275L5 275L15 275L25 275L35 275L45 265L55 265L65 265L75 265L85 265L95 255L105 255L115 255L125 255L135 255L145 245L155 245L165 245L175 245L185 245L195 245L205 245L215 245L225 245L235 245L245 245L255 255L265 255L275 255L285 265L295 265L305 265L315 265L325 265L335 265L345 265L355 265L365 265L375 265L385 265L395 265L405 265L415 265L425 265L435 265L445 265L455 265L465 265L475 265L485 265L495 265L505 265L515 255L525 255L535 255L545 255L555 255L565 255L575 255L585 255L595 255L605 255L615 255L625 255L635 255L645 255L655 255L665 255L675 255L685 255" stroke="rgba(8, 215, 23, 1)" stroke-width="1.67"></path><path d="M682.5 255 a2.5 2.5 0 1 0 5 0 a2.5 2.5 0 1 0 -5 0zM222.5 255 a2.5 2.5 0 1 0 5 0 a2.5 2.5 0 1 0 -5 0zM302.5 255 a2.5 2.5 0 1 0 5 0 a2.5 2.5 0 1 0 -5 0zM472.5 275 a2.5 2.5 0 1 0 5 0 a2.5 2.5 0 1 0 -5 0zM612.5 265 a2.5 2.5 0 1 0 5 0 a2.5 2.5 0 1 0 -5 0zM702.5 265 a2.5 2.5 0 1 0 5 0 a2.5 2.5 0 1 0 -5 0zM462.5 285 a2.5 2.5 0 1 0 5 0 a2.5 2.5 0 1 0 -5 0zM372.5 275 a2.5 2.5 0 1 0 5 0 a2.5 2.5 0 1 0 -5 0zM222.5 265 a2.5 2.5 0 1 0 5 0 a2.5 2.5 0 1 0 -5 0zM112.5 265 a2.5 2.5 0 1 0 5 0 a2.5 2.5 0 1 0 -5 0zM192.5 265 a2.5 2.5 0 1 0 5 0 a2.5 2.5 0 1 0 -5 0zM542.5 265 a2.5 2.5 0 1 0 5 0 a2.5 2.5 0 1 0 -5 0zM582.5 275 a2.5 2.5 0 1 0 5 0 a2.5 2.5 0 1 0 -5 0zM492.5 255 a2.5 2.5 0 1 0 5 0 a2.5 2.5 0 1 0 -5 0zM452.5 245 a2.5 2.5 0 1 0 5 0 a2.5 2.5 0 1 0 -5 0zM422.5 245 a2.5 2.5 0 1 0 5 0 a2.5 2.5 0 1 0 -5 0zM362.5 245 a2.5 2.5 0 1 0 5 0 a2.5 2.5 0 1 0 -5 0zM722.5 275 a2.5 2.5 0 1 0 5 0 a2.5 2.5 0 1 0 -5 0z" fill="rgba(8, 215, 23, 1)"></path><path d="M495 315L505 305L515 305L525 305M535 315L545 305L555 295L565 285L575 285L585 285L595 285L605 285L615 285L625 285L635 285M415 315L425 305L435 305M245 295L255 305L265 305L275 315M175 295L185 285L195 285L205 285M375 315L385 325L395 325L405 325L415 325M285 305L295 315L305 315L315 325L325 325M445 315L455 325L465 325L475 325L485 325M435 315L445 325M165 295L175 285M365 315L375 325M355 315L365 325M335 315L345 325L355 325M475 315L485 305M-5 295L5 295L15 295L25 295L35 295L45 285L55 285L65 285L75 285L85 285L95 285L105 285L115 285L125 285L135 285L145 285L155 295L165 295L175 295L185 295L195 295L205 295L215 295L225 295L235 295L245 295L255 295L265 295L275 305L285 305L295 305L305 305L315 315L325 315L335 315L345 315L355 315L365 315L375 315L385 315L395 315L405 315L415 315L425 315L435 315L445 315L455 315L465 315L475 315L485 315L495 315L505 315L515 315L525 315L535 315L545 315" stroke="rgba(8, 215, 23, 1)" stroke-width="1.67"></path><path d="M542.5 315 a2.5 2.5 0 1 0 5 0 a2.5 2.5 0 1 0 -5 0zM522.5 305 a2.5 2.5 0 1 0 5 0 a2.5 2.5 0 1 0 -5 0zM632.5 285 a2.5 2.5 0 1 0 5 0 a2.5 2.5 0 1 0 -5 0zM432.5 305 a2.5 2.5 0 1 0 5 0 a2.5 2.5 0 1 0 -5 0zM272.5 315 a2.5 2.5 0 1 0 5 0 a2.5 2.5 0 1 0 -5 0zM202.5 285 a2.5 2.5 0 1 0 5 0 a2.5 2.5 0 1 0 -5 0zM412.5 325 a2.5 2.5 0 1 0 5 0 a2.5 2.5 0 1 0 -5 0zM322.5 325 a2.5 2.5 0 1 0 5 0 a2.5 2.5 0 1 0 -5 0zM482.5 325 a2.5 2.5 0 1 0 5 0 a2.5 2.5 0 1 0 -5 0zM442.5 325 a2.5 2.5 0 1 0 5 0 a2.5 2.5 0 1 0 -5 0zM172.5 285 a2.5 2.5 0 1 0 5 0 a2.5 2.5 0 1 0 -5 0zM372.5 325 a2.5 2.5 0 1 0 5 0 a2.5 2.5 0 1 0 -5 0zM362.5 325 a2.5 2.5 0 1 0 5 0 a2.5 2.5 0 1 0 -5 0zM352.5 325 a2.5 2.5 0 1 0 5 0 a2.5 2.5 0 1 0 -5 0zM482.5 305 a2.5 2.5 0 1 0 5 0 a2.5 2.5 0 1 0 -5 0z" fill="rgba(8, 215, 23, 1)"></path><path d="M495 245L505 235L515 235L525 235L535 235L545 235L555 235L565 235M815 235L825 245L835 245L845 245L855 245M715 235L725 245L735 245L745 245L755 245L765 245L775 245M755 225L765 225L775 225L785 225L795 225L805 225L815 225M665 245L675 245L685 245L695 245L705 245L715 245L725 255L735 255L745 255L755 255L765 255L775 255L785 265L795 265L805 265L815 265L825 265M285 235L295 245M265 235L275 245L285 245M835 235L845 225L855 225L865 225L875 225M115 245L125 245L135 245M455 235L465 235L475 235L485 235L495 235M805 235L815 245L825 255L835 255L845 255L855 255M825 235L835 225M795 235L805 245L815 255M605 245L615 235M735 235L745 235L755 235M75 255L85 245L95 235M25 265L35 255M255 235L265 245M785 235L795 245L805 255M-5 265L5 265L15 265L25 265L35 265L45 255L55 255L65 255L75 255L85 255L95 245L105 245L115 245L125 235L135 235L145 235L155 235L165 235L175 235L185 235L195 235L205 235L215 235L225 235L235 235L245 235L255 235L265 235L275 235L285 235L295 235L305 235L315 235L325 235L335 235L345 235L355 235L365 235L375 235L385 235L395 235L405 235L415 235L425 235L435 235L445 235L455 235L465 245L475 245L485 245L495 245L505 245L515 245L525 245L535 245L545 245L555 245L565 245L575 245L585 245L595 245L605 245L615 245L625 245L635 245L645 245L655 245L665 245L675 235L685 235L695 235L705 235L715 235L725 235L735 235L745 225L755 225L765 235L775 235L785 235L795 235L805 235L815 235L825 235L835 235L845 235L855 235L865 235" stroke="rgba(8, 215, 23, 1)" stroke-width="1.67"></path><path d="M862.5 235 a2.5 2.5 0 1 0 5 0 a2.5 2.5 0 1 0 -5 0zM562.5 235 a2.5 2.5 0 1 0 5 0 a2.5 2.5 0 1 0 -5 0zM852.5 245 a2.5 2.5 0 1 0 5 0 a2.5 2.5 0 1 0 -5 0zM772.5 245 a2.5 2.5 0 1 0 5 0 a2.5 2.5 0 1 0 -5 0zM812.5 225 a2.5 2.5 0 1 0 5 0 a2.5 2.5 0 1 0 -5 0zM822.5 265 a2.5 2.5 0 1 0 5 0 a2.5 2.5 0 1 0 -5 0zM292.5 245 a2.5 2.5 0 1 0 5 0 a2.5 2.5 0 1 0 -5 0zM282.5 245 a2.5 2.5 0 1 0 5 0 a2.5 2.5 0 1 0 -5 0zM872.5 225 a2.5 2.5 0 1 0 5 0 a2.5 2.5 0 1 0 -5 0zM132.5 245 a2.5 2.5 0 1 0 5 0 a2.5 2.5 0 1 0 -5 0zM492.5 235 a2.5 2.5 0 1 0 5 0 a2.5 2.5 0 1 0 -5 0zM852.5 255 a2.5 2.5 0 1 0 5 0 a2.5 2.5 0 1 0 -5 0zM832.5 225 a2.5 2.5 0 1 0 5 0 a2.5 2.5 0 1 0 -5 0zM812.5 255 a2.5 2.5 0 1 0 5 0 a2.5 2.5 0 1 0 -5 0zM612.5 235 a2.5 2.5 0 1 0 5 0 a2.5 2.5 0 1 0 -5 0zM752.5 235 a2.5 2.5 0 1 0 5 0 a2.5 2.5 0 1 0 -5 0zM92.5 235 a2.5 2.5 0 1 0 5 0 a2.5 2.5 0 1 0 -5 0zM32.5 255 a2.5 2.5 0 1 0 5 0 a2.5 2.5 0 1 0 -5 0zM262.5 245 a2.5 2.5 0 1 0 5 0 a2.5 2.5 0 1 0 -5 0zM802.5 255 a2.5 2.5 0 1 0 5 0 a2.5 2.5 0 1 0 -5 0z" fill="rgba(8, 215, 23, 1)"></path><path d="M615 315L625 305L635 305L645 305L655 305M155 305L165 315L175 315L185 315L195 315L205 315L215 315M115 295L125 305L135 305L145 305M625 315L635 325L645 325L655 325L665 325L675 325L685 325L695 325L705 325L715 325L725 325L735 325L745 325L755 325L765 325L775 325L785 325L795 325L805 325L815 325L825 325L835 325L845 325L855 325L865 325L875 315L885 315M45 295L55 305L65 305L75 305M85 295L95 305L105 305L115 305L125 315L135 315L145 315L155 315L165 325L175 325L185 325L195 325M525 325L535 335L545 335L555 335L565 335L575 335L585 335L595 335L605 335L615 335L625 335L635 335M285 325L295 325L305 325M425 335L435 325M465 345L475 335M225 305L235 305L245 305M605 315L615 305M35 305L45 305L55 315L65 315L75 315L85 305M585 325L595 315L605 305L615 295L625 295L635 295L645 295L655 295L665 305L675 305L685 305L695 305L705 305L715 305L725 305L735 305L745 295L755 295L765 295L775 295L785 295L795 295L805 295L815 295L825 295M505 325L515 335M595 325L605 325L615 325L625 325M455 335L465 335M-5 305L5 305L15 305L25 305L35 305L45 295L55 295L65 295L75 295L85 295L95 295L105 295L115 295L125 295L135 295L145 295L155 305L165 305L175 305L185 305L195 305L205 305L215 305L225 305L235 315L245 315L255 315L265 325L275 325L285 325L295 335L305 335L315 335L325 335L335 335L345 335L355 335L365 335L375 335L385 335L395 335L405 335L415 335L425 335L435 335L445 335L455 335L465 345L475 345L485 335L495 335L505 325L515 325L525 325L535 325L545 325L555 325L565 325L575 325L585 325L595 325L605 315L615 315L625 315L635 315L645 315L655 315L665 315L675 315" stroke="rgba(8, 215, 23, 1)" stroke-width="1.67"></path><path d="M672.5 315 a2.5 2.5 0 1 0 5 0 a2.5 2.5 0 1 0 -5 0zM652.5 305 a2.5 2.5 0 1 0 5 0 a2.5 2.5 0 1 0 -5 0zM212.5 315 a2.5 2.5 0 1 0 5 0 a2.5 2.5 0 1 0 -5 0zM142.5 305 a2.5 2.5 0 1 0 5 0 a2.5 2.5 0 1 0 -5 0zM882.5 315 a2.5 2.5 0 1 0 5 0 a2.5 2.5 0 1 0 -5 0zM72.5 305 a2.5 2.5 0 1 0 5 0 a2.5 2.5 0 1 0 -5 0zM192.5 325 a2.5 2.5 0 1 0 5 0 a2.5 2.5 0 1 0 -5 0zM632.5 335 a2.5 2.5 0 1 0 5 0 a2.5 2.5 0 1 0 -5 0zM302.5 325 a2.5 2.5 0 1 0 5 0 a2.5 2.5 0 1 0 -5 0zM432.5 325 a2.5 2.5 0 1 0 5 0 a2.5 2.5 0 1 0 -5 0zM472.5 335 a2.5 2.5 0 1 0 5 0 a2.5 2.5 0 1 0 -5 0zM242.5 305 a2.5 2.5 0 1 0 5 0 a2.5 2.5 0 1 0 -5 0zM612.5 305 a2.5 2.5 0 1 0 5 0 a2.5 2.5 0 1 0 -5 0zM82.5 305 a2.5 2.5 0 1 0 5 0 a2.5 2.5 0 1 0 -5 0zM822.5 295 a2.5 2.5 0 1 0 5 0 a2.5 2.5 0 1 0 -5 0zM512.5 335 a2.5 2.5 0 1 0 5 0 a2.5 2.5 0 1 0 -5 0zM622.5 325 a2.5 2.5 0 1 0 5 0 a2.5 2.5 0 1 0 -5 0zM462.5 335 a2.5 2.5 0 1 0 5 0 a2.5 2.5 0 1 0 -5 0z" fill="rgba(8, 215, 23, 1)"></path><path d="M585 235L595 225M835 215L845 205L855 205L865 205L875 205L885 205L895 205M615 225L625 225L635 225L645 225L655 225L665 225L675 215L685 215L695 215L705 215L715 215L725 215L735 215L745 205L755 205M565 225L575 225M485 225L495 215M65 245L75 245M105 235L115 225M765 215L775 205L785 195L795 195L805 195L815 205L825 205L835 205L845 195L855 195L865 195L875 195L885 195L895 195L905 195L915 195L925 195L935 195L945 195L955 195L965 195L975 205L985 215L995 215L1005 215L1015 215L1025 215L1035 215L1045 215L1055 215L1065 215M75 235L85 235M895 215L905 225L915 225M495 225L505 225L515 225L525 225M795 215L805 205M555 225L565 215L575 215L585 215L595 215L605 215L615 215L625 215L635 215L645 215L655 215L665 215L675 205L685 195L695 195L705 195L715 195L725 195M465 225L475 215L485 215M885 215L895 225L905 235M95 225L105 225M595 235L605 235M525 215L535 215L545 215L555 215M785 215L795 205M-5 255L5 255L15 255L25 245L35 245L45 245L55 245L65 245L75 235L85 225L95 225L105 235L115 235L125 225L135 225L145 225L155 225L165 225L175 225L185 225L195 225L205 225L215 225L225 225L235 225L245 225L255 225L265 225L275 225L285 225L295 225L305 225L315 225L325 225L335 225L345 225L355 225L365 225L375 225L385 225L395 225L405 225L415 225L425 225L435 225L445 225L455 225L465 225L475 225L485 225L495 225L505 215L515 215L525 215L535 225L545 225L555 225L565 225L575 235L585 235L595 235L605 225L615 225L625 235L635 235L645 235L655 235L665 235L675 225L685 225L695 225L705 225L715 225L725 225L735 225L745 215L755 215L765 215L775 215L785 215L795 215L805 215L815 215L825 215L835 215L845 215L855 215L865 215L875 215L885 215L895 215L905 215" stroke="rgba(8, 215, 23, 1)" stroke-width="1.67"></path><path d="M902.5 215 a2.5 2.5 0 1 0 5 0 a2.5 2.5 0 1 0 -5 0zM592.5 225 a2.5 2.5 0 1 0 5 0 a2.5 2.5 0 1 0 -5 0zM892.5 205 a2.5 2.5 0 1 0 5 0 a2.5 2.5 0 1 0 -5 0zM752.5 205 a2.5 2.5 0 1 0 5 0 a2.5 2.5 0 1 0 -5 0zM572.5 225 a2.5 2.5 0 1 0 5 0 a2.5 2.5 0 1 0 -5 0zM492.5 215 a2.5 2.5 0 1 0 5 0 a2.5 2.5 0 1 0 -5 0zM72.5 245 a2.5 2.5 0 1 0 5 0 a2.5 2.5 0 1 0 -5 0zM112.5 225 a2.5 2.5 0 1 0 5 0 a2.5 2.5 0 1 0 -5 0zM1062.5 215 a2.5 2.5 0 1 0 5 0 a2.5 2.5 0 1 0 -5 0zM82.5 235 a2.5 2.5 0 1 0 5 0 a2.5 2.5 0 1 0 -5 0zM912.5 225 a2.5 2.5 0 1 0 5 0 a2.5 2.5 0 1 0 -5 0zM522.5 225 a2.5 2.5 0 1 0 5 0 a2.5 2.5 0 1 0 -5 0zM802.5 205 a2.5 2.5 0 1 0 5 0 a2.5 2.5 0 1 0 -5 0zM722.5 195 a2.5 2.5 0 1 0 5 0 a2.5 2.5 0 1 0 -5 0zM482.5 215 a2.5 2.5 0 1 0 5 0 a2.5 2.5 0 1 0 -5 0zM902.5 235 a2.5 2.5 0 1 0 5 0 a2.5 2.5 0 1 0 -5 0zM102.5 225 a2.5 2.5 0 1 0 5 0 a2.5 2.5 0 1 0 -5 0zM602.5 235 a2.5 2.5 0 1 0 5 0 a2.5 2.5 0 1 0 -5 0zM552.5 215 a2.5 2.5 0 1 0 5 0 a2.5 2.5 0 1 0 -5 0zM792.5 205 a2.5 2.5 0 1 0 5 0 a2.5 2.5 0 1 0 -5 0z" fill="rgba(8, 215, 23, 1)"></path><path d="M85 325L95 315M35 325L45 315M135 325L145 335M25 315L35 315M-5 315L5 315L15 315L25 315L35 325L45 325L55 325L65 325L75 325L85 325L95 325L105 325L115 325L125 325L135 325L145 325" stroke="rgba(8, 215, 23, 1)" stroke-width="1.67"></path><path d="M142.5 325 a2.5 2.5 0 1 0 5 0 a2.5 2.5 0 1 0 -5 0zM92.5 315 a2.5 2.5 0 1 0 5 0 a2.5 2.5 0 1 0 -5 0zM42.5 315 a2.5 2.5 0 1 0 5 0 a2.5 2.5 0 1 0 -5 0zM142.5 335 a2.5 2.5 0 1 0 5 0 a2.5 2.5 0 1 0 -5 0zM32.5 315 a2.5 2.5 0 1 0 5 0 a2.5 2.5 0 1 0 -5 0z" fill="rgba(8, 215, 23, 1)"></path><path d="M45 235L55 225L65 225M35 235L45 225M-5 245L5 245L15 245L25 235L35 235L45 235L55 235L65 235L75 225L85 215L95 215L105 215L115 215L125 215L135 215L145 215L155 215L165 215L175 215L185 215L195 215L205 215L215 215L225 215L235 215L245 215L255 215L265 215L275 215L285 215L295 215L305 215L315 215L325 215L335 215L345 215L355 215L365 215L375 215L385 215L395 215L405 215L415 215" stroke="rgba(8, 215, 23, 1)" stroke-width="1.67"></path><path d="M412.5 215 a2.5 2.5 0 1 0 5 0 a2.5 2.5 0 1 0 -5 0zM62.5 225 a2.5 2.5 0 1 0 5 0 a2.5 2.5 0 1 0 -5 0zM42.5 225 a2.5 2.5 0 1 0 5 0 a2.5 2.5 0 1 0 -5 0z" fill="rgba(8, 215, 23, 1)"></path><path d="M-5 325L5 325L15 325L25 325L35 335L45 335L55 335L65 335L75 335L85 335L95 335L105 335L115 335" stroke="rgba(8, 215, 23, 1)" stroke-width="1.67"></path><path d="M112.5 335 a2.5 2.5 0 1 0 5 0 a2.5 2.5 0 1 0 -5 0z" fill="rgba(8, 215, 23, 1)"></path><path d="M115 205L125 195M705 175L715 185L725 185M595 195L605 185L615 185L625 185L635 185L645 185M515 205L525 195L535 195L545 195L555 195L565 195L575 195M395 205L405 195L415 195M805 185L815 175L825 175L835 175L845 165L855 165L865 155L875 155L885 155L895 155L905 155L915 155L925 155L935 155L945 155L955 165L965 165L975 165L985 165L995 165L1005 165L1015 165L1025 165L1035 165L1045 165M135 205L145 195M175 205L185 195L195 195L205 195L215 195L225 195L235 195L245 195L255 195M765 175L775 175L785 175L795 175L805 175M985 175L995 185L1005 185L1015 185L1025 185L1035 185L1045 185L1055 185L1065 185M325 205L335 195M945 175L955 185L965 185L975 185L985 185L995 195L1005 195L1015 205L1025 205L1035 205L1045 205L1055 205L1065 205M865 185L875 175L885 165L895 165L905 165L915 165L925 165L935 165L945 165M105 205L115 195M845 185L855 175L865 165M485 205L495 195L505 185L515 185L525 185L535 185L545 185L555 185L565 185L575 185L585 185L595 185M685 175L695 185L705 185M155 205L165 195L175 195M655 185L665 185L675 185L685 185M905 175L915 185L925 185L935 185L945 185M365 205L375 195L385 195L395 195M465 205L475 195L485 195L495 185M745 185L755 185L765 185L775 195M435 215L445 205L455 205L465 195L475 185L485 185M645 195L655 195L665 195L675 195M615 195L625 205L635 205M-5 235L5 235L15 235L25 225L35 215L45 215L55 215L65 215L75 215L85 205L95 205L105 205L115 205L125 205L135 205L145 205L155 205L165 205L175 205L185 205L195 205L205 205L215 205L225 205L235 205L245 205L255 205L265 205L275 205L285 205L295 205L305 205L315 205L325 205L335 205L345 205L355 205L365 205L375 205L385 205L395 205L405 205L415 205L425 205L435 215L445 215L455 215L465 205L475 205L485 205L495 205L505 205L515 205L525 205L535 205L545 205L555 205L565 205L575 205L585 195L595 195L605 195L615 195L625 195L635 195L645 195L655 185L665 175L675 175L685 175L695 175L705 175L715 175L725 175L735 185L745 185L755 175L765 175L775 185L785 185L795 185L805 185L815 185L825 185L835 185L845 185L855 185L865 185L875 185L885 175L895 175L905 175L915 175L925 175L935 175L945 175L955 175L965 175L975 175L985 175L995 175L1005 175L1015 175L1025 175L1035 175L1045 175L1055 175" stroke="rgba(8, 215, 23, 1)" stroke-width="1.67"></path><path d="M1052.5 175 a2.5 2.5 0 1 0 5 0 a2.5 2.5 0 1 0 -5 0zM122.5 195 a2.5 2.5 0 1 0 5 0 a2.5 2.5 0 1 0 -5 0zM722.5 185 a2.5 2.5 0 1 0 5 0 a2.5 2.5 0 1 0 -5 0zM642.5 185 a2.5 2.5 0 1 0 5 0 a2.5 2.5 0 1 0 -5 0zM572.5 195 a2.5 2.5 0 1 0 5 0 a2.5 2.5 0 1 0 -5 0zM412.5 195 a2.5 2.5 0 1 0 5 0 a2.5 2.5 0 1 0 -5 0zM1042.5 165 a2.5 2.5 0 1 0 5 0 a2.5 2.5 0 1 0 -5 0zM142.5 195 a2.5 2.5 0 1 0 5 0 a2.5 2.5 0 1 0 -5 0zM252.5 195 a2.5 2.5 0 1 0 5 0 a2.5 2.5 0 1 0 -5 0zM802.5 175 a2.5 2.5 0 1 0 5 0 a2.5 2.5 0 1 0 -5 0zM1062.5 185 a2.5 2.5 0 1 0 5 0 a2.5 2.5 0 1 0 -5 0zM332.5 195 a2.5 2.5 0 1 0 5 0 a2.5 2.5 0 1 0 -5 0zM1062.5 205 a2.5 2.5 0 1 0 5 0 a2.5 2.5 0 1 0 -5 0zM942.5 165 a2.5 2.5 0 1 0 5 0 a2.5 2.5 0 1 0 -5 0zM112.5 195 a2.5 2.5 0 1 0 5 0 a2.5 2.5 0 1 0 -5 0zM862.5 165 a2.5 2.5 0 1 0 5 0 a2.5 2.5 0 1 0 -5 0zM592.5 185 a2.5 2.5 0 1 0 5 0 a2.5 2.5 0 1 0 -5 0zM702.5 185 a2.5 2.5 0 1 0 5 0 a2.5 2.5 0 1 0 -5 0zM172.5 195 a2.5 2.5 0 1 0 5 0 a2.5 2.5 0 1 0 -5 0zM682.5 185 a2.5 2.5 0 1 0 5 0 a2.5 2.5 0 1 0 -5 0zM942.5 185 a2.5 2.5 0 1 0 5 0 a2.5 2.5 0 1 0 -5 0zM392.5 195 a2.5 2.5 0 1 0 5 0 a2.5 2.5 0 1 0 -5 0zM492.5 185 a2.5 2.5 0 1 0 5 0 a2.5 2.5 0 1 0 -5 0zM772.5 195 a2.5 2.5 0 1 0 5 0 a2.5 2.5 0 1 0 -5 0zM482.5 185 a2.5 2.5 0 1 0 5 0 a2.5 2.5 0 1 0 -5 0zM672.5 195 a2.5 2.5 0 1 0 5 0 a2.5 2.5 0 1 0 -5 0zM632.5 205 a2.5 2.5 0 1 0 5 0 a2.5 2.5 0 1 0 -5 0z" fill="rgba(8, 215, 23, 1)"></path><path d="M635 345L645 345M915 355L925 365L935 365L945 365M505 345L515 355L525 355L535 355L545 355L555 355M975 355L985 345L995 345L1005 345L1015 345L1025 345L1035 345L1045 345L1055 345L1065 345M995 355L1005 365L1015 365L1025 365L1035 365L1045 365L1055 365L1065 365M875 345L885 335L895 335L905 335M155 345L165 335M555 345L565 345L575 345M215 325L225 335L235 335M965 355L975 345L985 335L995 335L1005 335L1015 335L1025 335L1035 335L1045 335L1055 335L1065 335M475 355L485 355L495 355M125 345L135 335M955 355L965 365L975 365L985 365L995 365L1005 375L1015 375L1025 375L1035 375L1045 375L1055 375L1065 375M925 355L935 345L945 345L955 345L965 335L975 335L985 325L995 325L1005 325L1015 325L1025 325L1035 325L1045 325L1055 325M205 325L215 335M865 345L875 335L885 325L895 315L905 315L915 315L925 315L935 315L945 315M885 345L895 355M855 335L865 335M435 345L445 345L455 345M195 335L205 335M905 345L915 345M-5 335L5 335L15 335L25 335L35 345L45 345L55 345L65 345L75 345L85 345L95 345L105 345L115 345L125 345L135 345L145 345L155 345L165 345L175 335L185 335L195 335L205 325L215 325L225 325L235 325L245 325L255 325L265 335L275 335L285 335L295 345L305 345L315 345L325 345L335 345L345 345L355 345L365 345L375 345L385 345L395 345L405 345L415 345L425 345L435 345L445 355L455 355L465 355L475 355L485 345L495 345L505 345L515 345L525 345L535 345L545 345L555 345L565 355L575 355L585 345L595 345L605 345L615 345L625 345L635 345L645 335L655 335L665 335L675 335L685 335L695 335L705 335L715 335L725 335L735 335L745 335L755 335L765 335L775 335L785 335L795 335L805 335L815 335L825 335L835 335L845 335L855 335L865 345L875 345L885 345L895 345L905 345L915 355L925 355L935 355L945 355L955 355L965 355L975 355L985 355L995 355L1005 355L1015 355L1025 355L1035 355L1045 355" stroke="rgba(8, 215, 23, 1)" stroke-width="1.67"></path><path d="M1042.5 355 a2.5 2.5 0 1 0 5 0 a2.5 2.5 0 1 0 -5 0zM642.5 345 a2.5 2.5 0 1 0 5 0 a2.5 2.5 0 1 0 -5 0zM942.5 365 a2.5 2.5 0 1 0 5 0 a2.5 2.5 0 1 0 -5 0zM552.5 355 a2.5 2.5 0 1 0 5 0 a2.5 2.5 0 1 0 -5 0zM1062.5 345 a2.5 2.5 0 1 0 5 0 a2.5 2.5 0 1 0 -5 0zM1062.5 365 a2.5 2.5 0 1 0 5 0 a2.5 2.5 0 1 0 -5 0zM902.5 335 a2.5 2.5 0 1 0 5 0 a2.5 2.5 0 1 0 -5 0zM162.5 335 a2.5 2.5 0 1 0 5 0 a2.5 2.5 0 1 0 -5 0zM572.5 345 a2.5 2.5 0 1 0 5 0 a2.5 2.5 0 1 0 -5 0zM232.5 335 a2.5 2.5 0 1 0 5 0 a2.5 2.5 0 1 0 -5 0zM1062.5 335 a2.5 2.5 0 1 0 5 0 a2.5 2.5 0 1 0 -5 0zM492.5 355 a2.5 2.5 0 1 0 5 0 a2.5 2.5 0 1 0 -5 0zM132.5 335 a2.5 2.5 0 1 0 5 0 a2.5 2.5 0 1 0 -5 0zM1062.5 375 a2.5 2.5 0 1 0 5 0 a2.5 2.5 0 1 0 -5 0zM1052.5 325 a2.5 2.5 0 1 0 5 0 a2.5 2.5 0 1 0 -5 0zM212.5 335 a2.5 2.5 0 1 0 5 0 a2.5 2.5 0 1 0 -5 0zM942.5 315 a2.5 2.5 0 1 0 5 0 a2.5 2.5 0 1 0 -5 0zM892.5 355 a2.5 2.5 0 1 0 5 0 a2.5 2.5 0 1 0 -5 0zM862.5 335 a2.5 2.5 0 1 0 5 0 a2.5 2.5 0 1 0 -5 0zM452.5 345 a2.5 2.5 0 1 0 5 0 a2.5 2.5 0 1 0 -5 0zM202.5 335 a2.5 2.5 0 1 0 5 0 a2.5 2.5 0 1 0 -5 0zM912.5 345 a2.5 2.5 0 1 0 5 0 a2.5 2.5 0 1 0 -5 0z" fill="rgba(8, 215, 23, 1)"></path><path d="M205 185L215 175L225 175L235 175L245 175M165 185L175 175L185 175L195 175L205 175M645 175L655 165L665 155L675 155L685 155L695 155L705 155L715 155L725 155L735 155L745 155L755 155L765 155L775 155L785 155M585 175L595 165L605 165L615 165L625 165L635 165L645 165L655 155L665 145L675 145L685 145L695 145L705 145L715 145L725 145L735 145L745 145L755 145L765 145L775 145L785 145L795 145L805 145L815 145L825 145L835 145L845 135L855 135L865 135L875 135L885 135L895 135L905 135L915 135L925 135L935 135L945 135L955 135L965 135L975 135M275 195L285 185L295 185L305 185L315 185M365 185L375 175L385 175M335 185L345 175L355 175L365 175M445 175L455 185L465 185M355 185L365 195M565 175L575 165L585 165L595 155M155 185L165 175M325 185L335 175M435 175L445 185L455 195M315 195L325 195M255 185L265 185L275 185M415 185L425 175M795 165L805 155L815 155L825 155L835 155L845 155L855 155L865 145L875 145L885 145L895 145L905 145L915 145L925 145L935 145L945 145L955 145L965 145M85 195L95 195L105 195M345 185L355 195M5 225L15 225M395 185L405 175L415 175M-5 225L5 225L15 215L25 215L35 205L45 205L55 205L65 205L75 205L85 195L95 185L105 185L115 185L125 185L135 185L145 185L155 185L165 185L175 185L185 185L195 185L205 185L215 185L225 185L235 185L245 185L255 185L265 195L275 195L285 195L295 195L305 195L315 195L325 185L335 185L345 185L355 185L365 185L375 185L385 185L395 185L405 185L415 185L425 185L435 175L445 175L455 175L465 175L475 175L485 175L495 175L505 175L515 175L525 175L535 175L545 175L555 175L565 175L575 175L585 175L595 175L605 175L615 175L625 175L635 175L645 175L655 175L665 165L675 165L685 165L695 165L705 165L715 165L725 165L735 165L745 165L755 165L765 165L775 165L785 165L795 165L805 165L815 165L825 165" stroke="rgba(8, 215, 23, 1)" stroke-width="1.67"></path><path d="M822.5 165 a2.5 2.5 0 1 0 5 0 a2.5 2.5 0 1 0 -5 0zM242.5 175 a2.5 2.5 0 1 0 5 0 a2.5 2.5 0 1 0 -5 0zM202.5 175 a2.5 2.5 0 1 0 5 0 a2.5 2.5 0 1 0 -5 0zM782.5 155 a2.5 2.5 0 1 0 5 0 a2.5 2.5 0 1 0 -5 0zM972.5 135 a2.5 2.5 0 1 0 5 0 a2.5 2.5 0 1 0 -5 0zM312.5 185 a2.5 2.5 0 1 0 5 0 a2.5 2.5 0 1 0 -5 0zM382.5 175 a2.5 2.5 0 1 0 5 0 a2.5 2.5 0 1 0 -5 0zM362.5 175 a2.5 2.5 0 1 0 5 0 a2.5 2.5 0 1 0 -5 0zM462.5 185 a2.5 2.5 0 1 0 5 0 a2.5 2.5 0 1 0 -5 0zM362.5 195 a2.5 2.5 0 1 0 5 0 a2.5 2.5 0 1 0 -5 0zM592.5 155 a2.5 2.5 0 1 0 5 0 a2.5 2.5 0 1 0 -5 0zM162.5 175 a2.5 2.5 0 1 0 5 0 a2.5 2.5 0 1 0 -5 0zM332.5 175 a2.5 2.5 0 1 0 5 0 a2.5 2.5 0 1 0 -5 0zM452.5 195 a2.5 2.5 0 1 0 5 0 a2.5 2.5 0 1 0 -5 0zM322.5 195 a2.5 2.5 0 1 0 5 0 a2.5 2.5 0 1 0 -5 0zM272.5 185 a2.5 2.5 0 1 0 5 0 a2.5 2.5 0 1 0 -5 0zM422.5 175 a2.5 2.5 0 1 0 5 0 a2.5 2.5 0 1 0 -5 0zM962.5 145 a2.5 2.5 0 1 0 5 0 a2.5 2.5 0 1 0 -5 0zM102.5 195 a2.5 2.5 0 1 0 5 0 a2.5 2.5 0 1 0 -5 0zM352.5 195 a2.5 2.5 0 1 0 5 0 a2.5 2.5 0 1 0 -5 0zM12.5 225 a2.5 2.5 0 1 0 5 0 a2.5 2.5 0 1 0 -5 0zM412.5 175 a2.5 2.5 0 1 0 5 0 a2.5 2.5 0 1 0 -5 0z" fill="rgba(8, 215, 23, 1)"></path><path d="M715 345L725 355L735 355L745 355L755 355L765 355L775 355L785 355L795 355L805 355L815 355L825 355L835 355L845 355L855 355M655 345L665 355L675 355L685 355L695 355L705 355L715 355M275 345L285 355M225 345L235 355L245 355M215 345L225 355M235 345L245 345L255 345M265 345L275 355M645 355L655 355M185 345L195 355L205 355L215 355M175 345L185 355M165 355L175 355M585 365L595 365M-5 345L5 345L15 345L25 345L35 355L45 355L55 355L65 355L75 355L85 355L95 355L105 355L115 355L125 355L135 355L145 355L155 355L165 355L175 345L185 345L195 345L205 345L215 345L225 345L235 345L245 335L255 335L265 345L275 345L285 345L295 355L305 355L315 355L325 355L335 355L345 355L355 355L365 355L375 355L385 355L395 355L405 355L415 355L425 355L435 355L445 365L455 365L465 365L475 365L485 365L495 365L505 365L515 365L525 365L535 365L545 365L555 365L565 365L575 365L585 365L595 355L605 355L615 355L625 355L635 355L645 355L655 345L665 345L675 345L685 345L695 345L705 345L715 345L725 345L735 345L745 345L755 345L765 345L775 345L785 345L795 345L805 345L815 345L825 345L835 345L845 345L855 345L865 355L875 355" stroke="rgba(8, 215, 23, 1)" stroke-width="1.67"></path><path d="M872.5 355 a2.5 2.5 0 1 0 5 0 a2.5 2.5 0 1 0 -5 0zM852.5 355 a2.5 2.5 0 1 0 5 0 a2.5 2.5 0 1 0 -5 0zM712.5 355 a2.5 2.5 0 1 0 5 0 a2.5 2.5 0 1 0 -5 0zM282.5 355 a2.5 2.5 0 1 0 5 0 a2.5 2.5 0 1 0 -5 0zM242.5 355 a2.5 2.5 0 1 0 5 0 a2.5 2.5 0 1 0 -5 0zM222.5 355 a2.5 2.5 0 1 0 5 0 a2.5 2.5 0 1 0 -5 0zM252.5 345 a2.5 2.5 0 1 0 5 0 a2.5 2.5 0 1 0 -5 0zM272.5 355 a2.5 2.5 0 1 0 5 0 a2.5 2.5 0 1 0 -5 0zM652.5 355 a2.5 2.5 0 1 0 5 0 a2.5 2.5 0 1 0 -5 0zM212.5 355 a2.5 2.5 0 1 0 5 0 a2.5 2.5 0 1 0 -5 0zM182.5 355 a2.5 2.5 0 1 0 5 0 a2.5 2.5 0 1 0 -5 0zM172.5 355 a2.5 2.5 0 1 0 5 0 a2.5 2.5 0 1 0 -5 0zM592.5 365 a2.5 2.5 0 1 0 5 0 a2.5 2.5 0 1 0 -5 0z" fill="rgba(8, 215, 23, 1)"></path><path d="M385 165L395 155L405 155L415 155L425 155M365 165L375 155M505 165L515 155L525 155L535 155L545 155L555 155M355 165L365 155L375 145L385 145L395 145L405 135L415 135M435 165L445 155L455 155L465 155L475 155L485 155M295 155L305 145M145 175L155 175M335 165L345 155L355 155L365 145M285 155L295 165L305 165L315 165L325 175M255 165L265 175L275 175L285 175L295 175L305 175L315 175M315 155L325 155L335 155L345 145L355 145M275 165L285 165M265 165L275 155M-5 215L5 215L15 205L25 205L35 195L45 195L55 195L65 195L75 195L85 185L95 175L105 175L115 175L125 175L135 175L145 175L155 165L165 165L175 165L185 165L195 165L205 165L215 165L225 165L235 165L245 165L255 165L265 165L275 165L285 155L295 155L305 155L315 155L325 165L335 165L345 165L355 165L365 165L375 165L385 165L395 165L405 165L415 165L425 165L435 165L445 165L455 165L465 165L475 165L485 165L495 165L505 165L515 165L525 165L535 165L545 165L555 165" stroke="rgba(8, 215, 23, 1)" stroke-width="1.67"></path><path d="M552.5 165 a2.5 2.5 0 1 0 5 0 a2.5 2.5 0 1 0 -5 0zM422.5 155 a2.5 2.5 0 1 0 5 0 a2.5 2.5 0 1 0 -5 0zM372.5 155 a2.5 2.5 0 1 0 5 0 a2.5 2.5 0 1 0 -5 0zM552.5 155 a2.5 2.5 0 1 0 5 0 a2.5 2.5 0 1 0 -5 0zM412.5 135 a2.5 2.5 0 1 0 5 0 a2.5 2.5 0 1 0 -5 0zM482.5 155 a2.5 2.5 0 1 0 5 0 a2.5 2.5 0 1 0 -5 0zM302.5 145 a2.5 2.5 0 1 0 5 0 a2.5 2.5 0 1 0 -5 0zM152.5 175 a2.5 2.5 0 1 0 5 0 a2.5 2.5 0 1 0 -5 0zM362.5 145 a2.5 2.5 0 1 0 5 0 a2.5 2.5 0 1 0 -5 0zM322.5 175 a2.5 2.5 0 1 0 5 0 a2.5 2.5 0 1 0 -5 0zM312.5 175 a2.5 2.5 0 1 0 5 0 a2.5 2.5 0 1 0 -5 0zM352.5 145 a2.5 2.5 0 1 0 5 0 a2.5 2.5 0 1 0 -5 0zM282.5 165 a2.5 2.5 0 1 0 5 0 a2.5 2.5 0 1 0 -5 0zM272.5 155 a2.5 2.5 0 1 0 5 0 a2.5 2.5 0 1 0 -5 0z" fill="rgba(8, 215, 23, 1)"></path><path d="M785 365L795 375L805 375L815 375L825 375L835 375L845 375L855 375L865 375L875 385L885 385L895 385L905 385L915 385L925 385L935 385L945 385L955 385L965 385L975 385L985 385M635 365L645 375L655 375L665 375L675 375L685 375L695 375L705 385L715 385L725 375L735 375L745 375L755 375L765 375L775 375L785 375L795 385L805 385L815 385L825 385L835 385L845 385L855 385L865 385L875 395L885 395L895 395M385 365L395 375L405 375L415 375L425 375L435 375M155 365L165 375M885 365L895 375M625 365L635 375M875 365L885 375M335 365L345 375L355 375L365 375L375 375L385 375M605 365L615 375L625 375M325 365L335 375M595 375L605 375M145 365L155 375M255 365L265 355M-5 355L5 355L15 355L25 355L35 365L45 365L55 365L65 365L75 365L85 365L95 365L105 365L115 365L125 365L135 365L145 365L155 365L165 365L175 365L185 365L195 365L205 365L215 365L225 365L235 365L245 365L255 365L265 365L275 365L285 365L295 365L305 365L315 365L325 365L335 365L345 365L355 365L365 365L375 365L385 365L395 365L405 365L415 365L425 365L435 365L445 375L455 375L465 375L475 375L485 375L495 375L505 375L515 375L525 375L535 375L545 375L555 375L565 375L575 375L585 375L595 375L605 365L615 365L625 365L635 365L645 365L655 365L665 365L675 365L685 365L695 365L705 365L715 365L725 365L735 365L745 365L755 365L765 365L775 365L785 365L795 365L805 365L815 365L825 365L835 365L845 365L855 365L865 365L875 365L885 365L895 365" stroke="rgba(8, 215, 23, 1)" stroke-width="1.67"></path><path d="M892.5 365 a2.5 2.5 0 1 0 5 0 a2.5 2.5 0 1 0 -5 0zM982.5 385 a2.5 2.5 0 1 0 5 0 a2.5 2.5 0 1 0 -5 0zM892.5 395 a2.5 2.5 0 1 0 5 0 a2.5 2.5 0 1 0 -5 0zM432.5 375 a2.5 2.5 0 1 0 5 0 a2.5 2.5 0 1 0 -5 0zM162.5 375 a2.5 2.5 0 1 0 5 0 a2.5 2.5 0 1 0 -5 0zM892.5 375 a2.5 2.5 0 1 0 5 0 a2.5 2.5 0 1 0 -5 0zM632.5 375 a2.5 2.5 0 1 0 5 0 a2.5 2.5 0 1 0 -5 0zM882.5 375 a2.5 2.5 0 1 0 5 0 a2.5 2.5 0 1 0 -5 0zM382.5 375 a2.5 2.5 0 1 0 5 0 a2.5 2.5 0 1 0 -5 0zM622.5 375 a2.5 2.5 0 1 0 5 0 a2.5 2.5 0 1 0 -5 0zM332.5 375 a2.5 2.5 0 1 0 5 0 a2.5 2.5 0 1 0 -5 0zM602.5 375 a2.5 2.5 0 1 0 5 0 a2.5 2.5 0 1 0 -5 0zM152.5 375 a2.5 2.5 0 1 0 5 0 a2.5 2.5 0 1 0 -5 0zM262.5 355 a2.5 2.5 0 1 0 5 0 a2.5 2.5 0 1 0 -5 0z" fill="rgba(8, 215, 23, 1)"></path><path d="M255 155L265 155M-5 205L5 205L15 195L25 195L35 185L45 185L55 185L65 185L75 185L85 175L95 165L105 165L115 165L125 165L135 165L145 165L155 155L165 155L175 155L185 155L195 155L205 155L215 155L225 155L235 155L245 155L255 155L265 145L275 145L285 145" stroke="rgba(8, 215, 23, 1)" stroke-width="1.67"></path><path d="M282.5 145 a2.5 2.5 0 1 0 5 0 a2.5 2.5 0 1 0 -5 0zM262.5 155 a2.5 2.5 0 1 0 5 0 a2.5 2.5 0 1 0 -5 0z" fill="rgba(8, 215, 23, 1)"></path><path d="M245 375L255 385L265 385L275 385M15 365L25 375M175 375L185 385L195 385L205 385L215 385M225 375L235 385L245 385M5 365L15 375M285 375L295 385M135 375L145 375M-5 365L5 365L15 365L25 365L35 375L45 375L55 375L65 375L75 375L85 375L95 375L105 375L115 375L125 375L135 375L145 385L155 385L165 385L175 375L185 375L195 375L205 375L215 375L225 375L235 375L245 375L255 375L265 375L275 375L285 375L295 375L305 375L315 375" stroke="rgba(8, 215, 23, 1)" stroke-width="1.67"></path><path d="M312.5 375 a2.5 2.5 0 1 0 5 0 a2.5 2.5 0 1 0 -5 0zM272.5 385 a2.5 2.5 0 1 0 5 0 a2.5 2.5 0 1 0 -5 0zM22.5 375 a2.5 2.5 0 1 0 5 0 a2.5 2.5 0 1 0 -5 0zM212.5 385 a2.5 2.5 0 1 0 5 0 a2.5 2.5 0 1 0 -5 0zM242.5 385 a2.5 2.5 0 1 0 5 0 a2.5 2.5 0 1 0 -5 0zM12.5 375 a2.5 2.5 0 1 0 5 0 a2.5 2.5 0 1 0 -5 0zM292.5 385 a2.5 2.5 0 1 0 5 0 a2.5 2.5 0 1 0 -5 0zM142.5 375 a2.5 2.5 0 1 0 5 0 a2.5 2.5 0 1 0 -5 0z" fill="rgba(8, 215, 23, 1)"></path><path d="M605 105L615 95L625 95L635 95L645 95M725 95L735 85L745 85L755 85L765 85L775 85L785 85L795 85L805 95L815 95L825 95L835 95L845 95L855 95L865 95L875 95L885 95L895 95M785 105L795 95M465 125L475 115L485 115L495 115L505 115L515 105L525 105L535 105L545 95L555 95L565 95L575 95L585 95L595 95L605 95L615 85L625 85L635 85L645 85L655 85L665 85L675 85L685 85L695 85L705 85L715 85L725 85M675 105L685 115L695 115L705 115L715 115L725 105L735 105M415 125L425 115L435 115L445 115L455 115L465 115L475 105L485 105M425 125L435 135L445 135L455 135L465 135L475 135L485 135L495 135L505 135L515 135L525 135L535 135L545 125L555 125L565 125L575 125L585 125L595 115L605 115L615 115L625 115L635 115L645 115L655 115L665 115L675 115L685 125L695 135L705 135L715 135L725 135L735 135L745 135L755 135L765 135L775 135L785 135L795 135L805 135L815 135L825 135L835 135L845 125L855 125L865 125M565 115L575 105M705 95L715 105M305 135L315 125L325 125L335 125L345 125L355 125L365 125L375 115L385 115L395 115L405 115L415 115L425 105L435 105L445 105M655 105L665 95L675 95L685 95M845 105L855 115M45 175L55 165L65 165L75 165M745 95L755 95L765 95L775 95L785 95M365 135L375 135L385 135L395 135M685 105L695 105L705 105M325 135L335 145M815 105L825 115L835 115L845 115M505 125L515 125L525 125L535 125M955 115L965 125L975 125L985 125L995 125L1005 125L1015 125L1025 125L1035 125L1045 125L1055 125L1065 125M285 135L295 125L305 125M775 105L785 115L795 115L805 115M975 115L985 105L995 105L1005 105L1015 105L1025 105L1035 105L1045 105L1055 105L1065 105M965 115L975 105L985 95L995 95L1005 95L1015 95L1025 95L1035 95L1045 95L1055 95L1065 95M235 145L245 135M-5 195L5 185L15 185L25 185L35 175L45 175L55 175L65 175L75 175L85 165L95 155L105 155L115 155L125 155L135 155L145 145L155 145L165 145L175 145L185 145L195 145L205 145L215 145L225 145L235 145L245 145L255 145L265 135L275 135L285 135L295 135L305 135L315 135L325 135L335 135L345 135L355 135L365 135L375 125L385 125L395 125L405 125L415 125L425 125L435 125L445 125L455 125L465 125L475 125L485 125L495 125L505 125L515 115L525 115L535 115L545 115L555 115L565 115L575 115L585 105L595 105L605 105L615 105L625 105L635 105L645 105L655 105L665 105L675 105L685 105L695 95L705 95L715 95L725 95L735 95L745 95L755 105L765 105L775 105L785 105L795 105L805 105L815 105L825 105L835 105L845 105L855 105L865 105L875 105L885 105L895 105L905 105L915 105L925 105L935 115L945 115L955 115L965 115L975 115L985 115" stroke="rgba(8, 215, 23, 1)" stroke-width="1.67"></path><path d="M982.5 115 a2.5 2.5 0 1 0 5 0 a2.5 2.5 0 1 0 -5 0zM642.5 95 a2.5 2.5 0 1 0 5 0 a2.5 2.5 0 1 0 -5 0zM892.5 95 a2.5 2.5 0 1 0 5 0 a2.5 2.5 0 1 0 -5 0zM792.5 95 a2.5 2.5 0 1 0 5 0 a2.5 2.5 0 1 0 -5 0zM722.5 85 a2.5 2.5 0 1 0 5 0 a2.5 2.5 0 1 0 -5 0zM732.5 105 a2.5 2.5 0 1 0 5 0 a2.5 2.5 0 1 0 -5 0zM482.5 105 a2.5 2.5 0 1 0 5 0 a2.5 2.5 0 1 0 -5 0zM862.5 125 a2.5 2.5 0 1 0 5 0 a2.5 2.5 0 1 0 -5 0zM572.5 105 a2.5 2.5 0 1 0 5 0 a2.5 2.5 0 1 0 -5 0zM712.5 105 a2.5 2.5 0 1 0 5 0 a2.5 2.5 0 1 0 -5 0zM442.5 105 a2.5 2.5 0 1 0 5 0 a2.5 2.5 0 1 0 -5 0zM682.5 95 a2.5 2.5 0 1 0 5 0 a2.5 2.5 0 1 0 -5 0zM852.5 115 a2.5 2.5 0 1 0 5 0 a2.5 2.5 0 1 0 -5 0zM72.5 165 a2.5 2.5 0 1 0 5 0 a2.5 2.5 0 1 0 -5 0zM782.5 95 a2.5 2.5 0 1 0 5 0 a2.5 2.5 0 1 0 -5 0zM392.5 135 a2.5 2.5 0 1 0 5 0 a2.5 2.5 0 1 0 -5 0zM702.5 105 a2.5 2.5 0 1 0 5 0 a2.5 2.5 0 1 0 -5 0zM332.5 145 a2.5 2.5 0 1 0 5 0 a2.5 2.5 0 1 0 -5 0zM842.5 115 a2.5 2.5 0 1 0 5 0 a2.5 2.5 0 1 0 -5 0zM532.5 125 a2.5 2.5 0 1 0 5 0 a2.5 2.5 0 1 0 -5 0zM1062.5 125 a2.5 2.5 0 1 0 5 0 a2.5 2.5 0 1 0 -5 0zM302.5 125 a2.5 2.5 0 1 0 5 0 a2.5 2.5 0 1 0 -5 0zM802.5 115 a2.5 2.5 0 1 0 5 0 a2.5 2.5 0 1 0 -5 0zM1062.5 105 a2.5 2.5 0 1 0 5 0 a2.5 2.5 0 1 0 -5 0zM1062.5 95 a2.5 2.5 0 1 0 5 0 a2.5 2.5 0 1 0 -5 0zM242.5 135 a2.5 2.5 0 1 0 5 0 a2.5 2.5 0 1 0 -5 0z" fill="rgba(8, 215, 23, 1)"></path><path d="M595 385L605 395L615 395L625 395L635 395L645 395L655 395L665 395L675 395L685 395L695 395L705 395L715 395L725 395L735 405L745 415L755 415L765 415L775 415L785 415L795 415M225 395L235 405L245 405L255 405M365 385L375 395L385 395M445 385L455 395L465 395L475 395L485 395L495 395L505 395L515 395L525 395L535 395L545 395L555 395L565 395L575 405L585 405L595 405L605 405L615 405L625 405L635 405L645 405L655 405L665 405L675 405L685 405M285 395L295 405L305 405L315 405L325 405M405 385L415 395L425 395L435 395M395 385L405 395L415 405L425 405L435 405M265 395L275 405L285 405M95 385L105 395L115 395L125 395L135 395M325 385L335 395L345 405L355 405L365 405L375 405L385 405L395 405L405 405M315 385L325 395M585 385L595 395M85 385L95 395M295 395L305 395L315 395M-5 375L5 385L15 385L25 385L35 385L45 385L55 385L65 385L75 385L85 385L95 385L105 385L115 385L125 385L135 385L145 395L155 395L165 395L175 395L185 395L195 395L205 395L215 395L225 395L235 395L245 395L255 395L265 395L275 395L285 395L295 395L305 385L315 385L325 385L335 385L345 385L355 385L365 385L375 385L385 385L395 385L405 385L415 385L425 385L435 385L445 385L455 385L465 385L475 385L485 385L495 385L505 385L515 385L525 385L535 385L545 385L555 385L565 385L575 385L585 385L595 385L605 385L615 385L625 385L635 385L645 385L655 385L665 385L675 385L685 385L695 385" stroke="rgba(8, 215, 23, 1)" stroke-width="1.67"></path><path d="M692.5 385 a2.5 2.5 0 1 0 5 0 a2.5 2.5 0 1 0 -5 0zM792.5 415 a2.5 2.5 0 1 0 5 0 a2.5 2.5 0 1 0 -5 0zM252.5 405 a2.5 2.5 0 1 0 5 0 a2.5 2.5 0 1 0 -5 0zM382.5 395 a2.5 2.5 0 1 0 5 0 a2.5 2.5 0 1 0 -5 0zM682.5 405 a2.5 2.5 0 1 0 5 0 a2.5 2.5 0 1 0 -5 0zM322.5 405 a2.5 2.5 0 1 0 5 0 a2.5 2.5 0 1 0 -5 0zM432.5 395 a2.5 2.5 0 1 0 5 0 a2.5 2.5 0 1 0 -5 0zM432.5 405 a2.5 2.5 0 1 0 5 0 a2.5 2.5 0 1 0 -5 0zM282.5 405 a2.5 2.5 0 1 0 5 0 a2.5 2.5 0 1 0 -5 0zM132.5 395 a2.5 2.5 0 1 0 5 0 a2.5 2.5 0 1 0 -5 0zM402.5 405 a2.5 2.5 0 1 0 5 0 a2.5 2.5 0 1 0 -5 0zM322.5 395 a2.5 2.5 0 1 0 5 0 a2.5 2.5 0 1 0 -5 0zM592.5 395 a2.5 2.5 0 1 0 5 0 a2.5 2.5 0 1 0 -5 0zM92.5 395 a2.5 2.5 0 1 0 5 0 a2.5 2.5 0 1 0 -5 0zM312.5 395 a2.5 2.5 0 1 0 5 0 a2.5 2.5 0 1 0 -5 0z" fill="rgba(8, 215, 23, 1)"></path><path d="M225 135L235 135M65 155L75 145L85 145M35 165L45 165M55 155L65 145M245 125L255 125L265 125L275 125M-5 185L5 175L15 175L25 175L35 165L45 155L55 155L65 155L75 155L85 155L95 145L105 145L115 145L125 145L135 145L145 135L155 135L165 135L175 135L185 135L195 135L205 135L215 135L225 135L235 125L245 125L255 135" stroke="rgba(8, 215, 23, 1)" stroke-width="1.67"></path><path d="M252.5 135 a2.5 2.5 0 1 0 5 0 a2.5 2.5 0 1 0 -5 0zM232.5 135 a2.5 2.5 0 1 0 5 0 a2.5 2.5 0 1 0 -5 0zM82.5 145 a2.5 2.5 0 1 0 5 0 a2.5 2.5 0 1 0 -5 0zM42.5 165 a2.5 2.5 0 1 0 5 0 a2.5 2.5 0 1 0 -5 0zM62.5 145 a2.5 2.5 0 1 0 5 0 a2.5 2.5 0 1 0 -5 0zM272.5 125 a2.5 2.5 0 1 0 5 0 a2.5 2.5 0 1 0 -5 0z" fill="rgba(8, 215, 23, 1)"></path><path d="M-5 385L5 395L15 395L25 395L35 395L45 395L55 395L65 395L75 395" stroke="rgba(8, 215, 23, 1)" stroke-width="1.67"></path><path d="M72.5 395 a2.5 2.5 0 1 0 5 0 a2.5 2.5 0 1 0 -5 0z" fill="rgba(8, 215, 23, 1)"></path><path d="M435 85L445 95L455 95M375 95L385 105M355 95L365 105L375 105M405 95L415 105M485 75L495 85L505 85M445 85L455 85L465 85L475 85L485 85L495 95L505 95L515 95L525 95L535 95L545 85L555 85L565 85L575 85L585 85L595 85L605 85L615 75L625 75L635 75L645 65M335 115L345 115L355 115L365 115M495 75L505 65L515 55L525 55L535 65L545 65M425 95L435 95M415 95L425 85M345 105L355 105M515 75L525 85L535 85L545 75L555 65L565 65L575 65L585 65L595 65L605 65L615 65L625 65L635 65L645 55M395 95L405 105M-5 175L5 165L15 165L25 165L35 155L45 145L55 135L65 135L75 135L85 135L95 135L105 135L115 135L125 135L135 135L145 125L155 125L165 125L175 125L185 125L195 125L205 125L215 125L225 125L235 115L245 115L255 115L265 115L275 115L285 115L295 115L305 115L315 115L325 115L335 115L345 105L355 95L365 95L375 95L385 95L395 95L405 95L415 95L425 95L435 85L445 85L455 75L465 75L475 75L485 75L495 75L505 75L515 75L525 75" stroke="rgba(8, 215, 23, 1)" stroke-width="1.67"></path><path d="M522.5 75 a2.5 2.5 0 1 0 5 0 a2.5 2.5 0 1 0 -5 0zM452.5 95 a2.5 2.5 0 1 0 5 0 a2.5 2.5 0 1 0 -5 0zM382.5 105 a2.5 2.5 0 1 0 5 0 a2.5 2.5 0 1 0 -5 0zM372.5 105 a2.5 2.5 0 1 0 5 0 a2.5 2.5 0 1 0 -5 0zM412.5 105 a2.5 2.5 0 1 0 5 0 a2.5 2.5 0 1 0 -5 0zM502.5 85 a2.5 2.5 0 1 0 5 0 a2.5 2.5 0 1 0 -5 0zM642.5 65 a2.5 2.5 0 1 0 5 0 a2.5 2.5 0 1 0 -5 0zM362.5 115 a2.5 2.5 0 1 0 5 0 a2.5 2.5 0 1 0 -5 0zM542.5 65 a2.5 2.5 0 1 0 5 0 a2.5 2.5 0 1 0 -5 0zM432.5 95 a2.5 2.5 0 1 0 5 0 a2.5 2.5 0 1 0 -5 0zM422.5 85 a2.5 2.5 0 1 0 5 0 a2.5 2.5 0 1 0 -5 0zM352.5 105 a2.5 2.5 0 1 0 5 0 a2.5 2.5 0 1 0 -5 0zM642.5 55 a2.5 2.5 0 1 0 5 0 a2.5 2.5 0 1 0 -5 0zM402.5 105 a2.5 2.5 0 1 0 5 0 a2.5 2.5 0 1 0 -5 0z" fill="rgba(8, 215, 23, 1)"></path><path d="M365 415L375 425L385 425L395 425M465 415L475 405M405 415L415 425L425 425M685 415L695 425L705 435L715 435L725 435L735 435L745 435M515 405L525 415L535 415L545 415L555 415M355 415L365 425M505 405L515 415M455 415L465 405M475 415L485 415L495 415L505 415M335 415L345 425L355 425M445 415L455 405M555 405L565 405M215 405L225 405M695 415L705 415L715 415L725 415L735 415L745 425L755 425L765 425L775 425L785 425L795 425L805 425L815 425L825 425L835 425L845 425L855 425L865 415L875 405L885 405L895 405L905 405L915 405L925 405L935 405L945 405M-5 395L5 405L15 405L25 405L35 405L45 405L55 405L65 405L75 405L85 405L95 405L105 405L115 405L125 405L135 405L145 405L155 405L165 405L175 405L185 405L195 405L205 405L215 405L225 415L235 415L245 415L255 415L265 415L275 415L285 415L295 415L305 415L315 415L325 415L335 415L345 415L355 415L365 415L375 415L385 415L395 415L405 415L415 415L425 415L435 415L445 415L455 415L465 415L475 415L485 405L495 405L505 405L515 405L525 405L535 405L545 405L555 405L565 415L575 415L585 415L595 415L605 415L615 415L625 415L635 415L645 415L655 415L665 415L675 415L685 415L695 415L705 425" stroke="rgba(8, 215, 23, 1)" stroke-width="1.67"></path><path d="M702.5 425 a2.5 2.5 0 1 0 5 0 a2.5 2.5 0 1 0 -5 0zM392.5 425 a2.5 2.5 0 1 0 5 0 a2.5 2.5 0 1 0 -5 0zM472.5 405 a2.5 2.5 0 1 0 5 0 a2.5 2.5 0 1 0 -5 0zM422.5 425 a2.5 2.5 0 1 0 5 0 a2.5 2.5 0 1 0 -5 0zM742.5 435 a2.5 2.5 0 1 0 5 0 a2.5 2.5 0 1 0 -5 0zM552.5 415 a2.5 2.5 0 1 0 5 0 a2.5 2.5 0 1 0 -5 0zM362.5 425 a2.5 2.5 0 1 0 5 0 a2.5 2.5 0 1 0 -5 0zM512.5 415 a2.5 2.5 0 1 0 5 0 a2.5 2.5 0 1 0 -5 0zM462.5 405 a2.5 2.5 0 1 0 5 0 a2.5 2.5 0 1 0 -5 0zM502.5 415 a2.5 2.5 0 1 0 5 0 a2.5 2.5 0 1 0 -5 0zM352.5 425 a2.5 2.5 0 1 0 5 0 a2.5 2.5 0 1 0 -5 0zM452.5 405 a2.5 2.5 0 1 0 5 0 a2.5 2.5 0 1 0 -5 0zM562.5 405 a2.5 2.5 0 1 0 5 0 a2.5 2.5 0 1 0 -5 0zM222.5 405 a2.5 2.5 0 1 0 5 0 a2.5 2.5 0 1 0 -5 0zM942.5 405 a2.5 2.5 0 1 0 5 0 a2.5 2.5 0 1 0 -5 0z" fill="rgba(8, 215, 23, 1)"></path><path d="M-5 165L5 155L15 155L25 155L35 145L45 135L55 125L65 125L75 125L85 125L95 125L105 125L115 125L125 125L135 125" stroke="rgba(8, 215, 23, 1)" stroke-width="1.67"></path><path d="M132.5 125 a2.5 2.5 0 1 0 5 0 a2.5 2.5 0 1 0 -5 0z" fill="rgba(8, 215, 23, 1)"></path><path d="M565 425L575 435L585 435L595 435L605 435L615 435L625 435L635 435L645 435L655 435L665 435L675 435L685 435L695 435L705 445L715 445L725 445M195 415L205 425M455 425L465 435L475 435M515 425L525 435L535 435L545 435L555 435L565 435M315 425L325 425L335 425M505 425L515 435M145 415L155 425M295 425L305 435L315 435M135 415L145 425M425 435L435 435L445 435L455 435M185 415L195 425M165 415L175 425M485 425L495 435M-5 405L5 415L15 415L25 415L35 415L45 415L55 415L65 415L75 415L85 415L95 415L105 415L115 415L125 415L135 415L145 415L155 415L165 415L175 415L185 415L195 415L205 415L215 415L225 425L235 425L245 425L255 425L265 425L275 425L285 425L295 425L305 425L315 425L325 435L335 435L345 435L355 435L365 435L375 435L385 435L395 435L405 435L415 435L425 435L435 425L445 425L455 425L465 425L475 425L485 425L495 425L505 425L515 425L525 425L535 425L545 425L555 425L565 425L575 425L585 425L595 425L605 425L615 425L625 425L635 425L645 425L655 425L665 425L675 425" stroke="rgba(8, 215, 23, 1)" stroke-width="1.67"></path><path d="M672.5 425 a2.5 2.5 0 1 0 5 0 a2.5 2.5 0 1 0 -5 0zM722.5 445 a2.5 2.5 0 1 0 5 0 a2.5 2.5 0 1 0 -5 0zM202.5 425 a2.5 2.5 0 1 0 5 0 a2.5 2.5 0 1 0 -5 0zM472.5 435 a2.5 2.5 0 1 0 5 0 a2.5 2.5 0 1 0 -5 0zM562.5 435 a2.5 2.5 0 1 0 5 0 a2.5 2.5 0 1 0 -5 0zM332.5 425 a2.5 2.5 0 1 0 5 0 a2.5 2.5 0 1 0 -5 0zM512.5 435 a2.5 2.5 0 1 0 5 0 a2.5 2.5 0 1 0 -5 0zM152.5 425 a2.5 2.5 0 1 0 5 0 a2.5 2.5 0 1 0 -5 0zM312.5 435 a2.5 2.5 0 1 0 5 0 a2.5 2.5 0 1 0 -5 0zM142.5 425 a2.5 2.5 0 1 0 5 0 a2.5 2.5 0 1 0 -5 0zM452.5 435 a2.5 2.5 0 1 0 5 0 a2.5 2.5 0 1 0 -5 0zM192.5 425 a2.5 2.5 0 1 0 5 0 a2.5 2.5 0 1 0 -5 0zM172.5 425 a2.5 2.5 0 1 0 5 0 a2.5 2.5 0 1 0 -5 0zM492.5 435 a2.5 2.5 0 1 0 5 0 a2.5 2.5 0 1 0 -5 0z" fill="rgba(8, 215, 23, 1)"></path><path d="M285 105L295 95L305 95L315 95M235 105L245 95L255 95L265 95L275 95L285 95L295 85L305 85M15 145L25 145M25 135L35 135M215 115L225 105L235 95M205 115L215 105M195 115L205 105M-5 155L5 145L15 145L25 135L35 125L45 125L55 115L65 115L75 115L85 115L95 115L105 115L115 115L125 115L135 115L145 115L155 115L165 115L175 115L185 115L195 115L205 115L215 115L225 115L235 105L245 105L255 105L265 105L275 105L285 105L295 105L305 105L315 105L325 105L335 105L345 95L355 85L365 85L375 85L385 85L395 85L405 85" stroke="rgba(8, 215, 23, 1)" stroke-width="1.67"></path><path d="M402.5 85 a2.5 2.5 0 1 0 5 0 a2.5 2.5 0 1 0 -5 0zM312.5 95 a2.5 2.5 0 1 0 5 0 a2.5 2.5 0 1 0 -5 0zM302.5 85 a2.5 2.5 0 1 0 5 0 a2.5 2.5 0 1 0 -5 0zM22.5 145 a2.5 2.5 0 1 0 5 0 a2.5 2.5 0 1 0 -5 0zM32.5 135 a2.5 2.5 0 1 0 5 0 a2.5 2.5 0 1 0 -5 0zM232.5 95 a2.5 2.5 0 1 0 5 0 a2.5 2.5 0 1 0 -5 0zM212.5 105 a2.5 2.5 0 1 0 5 0 a2.5 2.5 0 1 0 -5 0zM202.5 105 a2.5 2.5 0 1 0 5 0 a2.5 2.5 0 1 0 -5 0z" fill="rgba(8, 215, 23, 1)"></path><path d="M605 455L615 445M65 425L75 435L85 435L95 445M55 425L65 435L75 445L85 445L95 455L105 455M265 435L275 445L285 445L295 455L305 455L315 455L325 455L335 455L345 455L355 455L365 455L375 455L385 455L395 455L405 455L415 455M25 425L35 435L45 435L55 435L65 445L75 455L85 465L95 465L105 465L115 465L125 455L135 455M735 455L745 445L755 445L765 445L775 445L785 445L795 445L805 445L815 445L825 445L835 445L845 445L855 445L865 445L875 445L885 445L895 445L905 435L915 425L925 425L935 415L945 415L955 415L965 415L975 415L985 415L995 415L1005 415L1015 415L1025 415L1035 415L1045 415L1055 415L1065 415M835 465L845 455L855 455L865 455L875 455L885 455L895 455L905 455L915 455L925 455L935 445L945 445M705 455L715 465L725 465L735 475L745 475L755 475L765 475L775 475L785 475L795 475L805 475L815 485L825 485L835 485L845 485L855 485L865 485L875 485L885 485L895 485L905 485L915 485L925 485L935 485L945 485L955 485L965 485L975 485M255 435L265 445L275 455L285 455L295 465L305 465L315 465L325 465L335 465L345 465L355 465L365 465L375 465L385 465L395 465L405 465M455 445L465 455L475 455L485 455L495 455L505 455L515 455L525 455L535 455L545 455L555 455L565 455L575 455L585 465L595 465L605 465L615 465L625 465L635 465M685 455L695 445M445 445L455 455L465 465L475 465L485 465L495 465L505 465L515 465L525 465L535 465L545 465L555 465L565 465L575 465L585 475L595 475L605 475L615 475L625 475L635 475L645 475L655 475L665 475L675 475L685 475M5 425L15 435L25 435L35 445L45 455L55 455L65 455L75 465L85 475L95 475L105 475L115 475L125 475L135 475L145 465L155 455L165 455L175 455L185 455L195 455L205 455L215 465L225 475L235 475M115 425L125 435L135 445L145 445L155 445L165 445L175 445L185 445L195 445L205 445L215 445M245 435L255 445L265 455L275 465L285 465L295 475M425 445L435 455L445 465L455 475M775 455L785 465L795 465M795 455L805 455L815 455L825 455L835 455M635 455L645 445L655 445L665 445L675 445L685 445M225 435L235 445M645 455L655 465L665 465L675 465L685 465L695 465M765 455L775 465M-5 415L5 425L15 425L25 425L35 425L45 425L55 425L65 425L75 425L85 425L95 425L105 425L115 425L125 425L135 435L145 435L155 435L165 435L175 435L185 435L195 435L205 435L215 435L225 435L235 435L245 435L255 435L265 435L275 435L285 435L295 445L305 445L315 445L325 445L335 445L345 445L355 445L365 445L375 445L385 445L395 445L405 445L415 445L425 445L435 445L445 445L455 445L465 445L475 445L485 445L495 445L505 445L515 445L525 445L535 445L545 445L555 445L565 445L575 445L585 455L595 455L605 455L615 455L625 455L635 455L645 455L655 455L665 455L675 455L685 455L695 455L705 455L715 455L725 455L735 455L745 455L755 455L765 455L775 455L785 455L795 455L805 465L815 465L825 465L835 465L845 465L855 465L865 465" stroke="rgba(8, 215, 23, 1)" stroke-width="1.67"></path><path d="M862.5 465 a2.5 2.5 0 1 0 5 0 a2.5 2.5 0 1 0 -5 0zM612.5 445 a2.5 2.5 0 1 0 5 0 a2.5 2.5 0 1 0 -5 0zM92.5 445 a2.5 2.5 0 1 0 5 0 a2.5 2.5 0 1 0 -5 0zM102.5 455 a2.5 2.5 0 1 0 5 0 a2.5 2.5 0 1 0 -5 0zM412.5 455 a2.5 2.5 0 1 0 5 0 a2.5 2.5 0 1 0 -5 0zM132.5 455 a2.5 2.5 0 1 0 5 0 a2.5 2.5 0 1 0 -5 0zM1062.5 415 a2.5 2.5 0 1 0 5 0 a2.5 2.5 0 1 0 -5 0zM942.5 445 a2.5 2.5 0 1 0 5 0 a2.5 2.5 0 1 0 -5 0zM972.5 485 a2.5 2.5 0 1 0 5 0 a2.5 2.5 0 1 0 -5 0zM402.5 465 a2.5 2.5 0 1 0 5 0 a2.5 2.5 0 1 0 -5 0zM632.5 465 a2.5 2.5 0 1 0 5 0 a2.5 2.5 0 1 0 -5 0zM692.5 445 a2.5 2.5 0 1 0 5 0 a2.5 2.5 0 1 0 -5 0zM682.5 475 a2.5 2.5 0 1 0 5 0 a2.5 2.5 0 1 0 -5 0zM232.5 475 a2.5 2.5 0 1 0 5 0 a2.5 2.5 0 1 0 -5 0zM212.5 445 a2.5 2.5 0 1 0 5 0 a2.5 2.5 0 1 0 -5 0zM292.5 475 a2.5 2.5 0 1 0 5 0 a2.5 2.5 0 1 0 -5 0zM452.5 475 a2.5 2.5 0 1 0 5 0 a2.5 2.5 0 1 0 -5 0zM792.5 465 a2.5 2.5 0 1 0 5 0 a2.5 2.5 0 1 0 -5 0zM832.5 455 a2.5 2.5 0 1 0 5 0 a2.5 2.5 0 1 0 -5 0zM682.5 445 a2.5 2.5 0 1 0 5 0 a2.5 2.5 0 1 0 -5 0zM232.5 445 a2.5 2.5 0 1 0 5 0 a2.5 2.5 0 1 0 -5 0zM692.5 465 a2.5 2.5 0 1 0 5 0 a2.5 2.5 0 1 0 -5 0zM772.5 465 a2.5 2.5 0 1 0 5 0 a2.5 2.5 0 1 0 -5 0z" fill="rgba(8, 215, 23, 1)"></path><path d="M305 75L315 65L325 65L335 55L345 55L355 55L365 55L375 45L385 45L395 45L405 45L415 35L425 35L435 35L445 35L455 35L465 45L475 45L485 45L495 45L505 45M945 25L955 35L965 35L975 45L985 45L995 45L1005 45L1015 45L1025 45L1035 45L1045 45M545 45L555 35L565 25M625 25L635 35L645 35L655 45L665 45M175 105L185 95L195 85L205 85M235 85L245 75L255 65L265 65L275 65M885 35L895 45L905 45L915 45L925 45L935 45L945 45L955 45M815 35L825 25L835 25L845 25L855 25L865 25L875 25L885 25L895 25L905 25L915 25M225 85L235 75L245 65L255 55L265 55L275 45L285 45L295 45L305 45L315 45L325 45L335 45L345 45L355 45L365 45L375 35L385 35L395 35L405 35L415 25L425 25L435 25L445 25L455 25L465 25L475 25L485 25L495 25M485 65L495 65M465 65L475 55L485 55M285 75L295 65L305 65L315 55L325 55M875 35L885 45L895 55L905 55L915 55L925 55L935 55L945 55L955 55M915 35L925 35L935 35L945 35M335 75L345 65L355 65L365 65L375 65L385 65L395 65L405 65L415 65L425 65L435 65L445 65L455 55L465 55M725 35L735 45L745 45L755 45L765 45L775 45L785 55L795 55L805 55L815 55M855 35L865 45L875 45L885 55L895 65M965 25L975 25M695 35L705 25L715 25L725 25L735 25L745 25L755 25L765 25L775 25L785 25L795 25L805 25L815 25M65 105L75 95M605 25L615 35L625 35L635 45L645 45M835 35L845 45L855 45L865 55L875 55L885 65L895 75L905 75L915 75L925 75L935 75L945 75L955 75L965 75L975 75L985 85L995 85L1005 85L1015 85L1025 85L1035 85L1045 85M95 105L105 95L115 85L125 85L135 85M585 25L595 35L605 35L615 45L625 45L635 55M565 35L575 35L585 35L595 45L605 55L615 55L625 55M-5 145L5 135L15 135L25 125L35 115L45 115L55 105L65 105L75 105L85 105L95 105L105 105L115 105L125 105L135 105L145 105L155 105L165 105L175 105L185 105L195 95L205 95L215 95L225 85L235 85L245 85L255 75L265 75L275 75L285 75L295 75L305 75L315 75L325 75L335 75L345 75L355 75L365 75L375 75L385 75L395 75L405 75L415 75L425 75L435 75L445 75L455 65L465 65L475 65L485 65L495 55L505 55L515 45L525 45L535 45L545 45L555 45L565 35L575 25L585 25L595 25L605 25L615 25L625 25L635 25L645 25L655 35L665 35L675 35L685 35L695 35L705 35L715 35L725 35L735 35L745 35L755 35L765 35L775 35L785 35L795 35L805 35L815 35L825 35L835 35L845 35L855 35L865 35L875 35L885 35L895 35L905 35L915 35L925 25L935 25L945 25L955 25L965 25L975 35L985 35L995 25L1005 25L1015 25" stroke="rgba(8, 215, 23, 1)" stroke-width="1.67"></path><path d="M1012.5 25 a2.5 2.5 0 1 0 5 0 a2.5 2.5 0 1 0 -5 0zM502.5 45 a2.5 2.5 0 1 0 5 0 a2.5 2.5 0 1 0 -5 0zM1042.5 45 a2.5 2.5 0 1 0 5 0 a2.5 2.5 0 1 0 -5 0zM562.5 25 a2.5 2.5 0 1 0 5 0 a2.5 2.5 0 1 0 -5 0zM662.5 45 a2.5 2.5 0 1 0 5 0 a2.5 2.5 0 1 0 -5 0zM202.5 85 a2.5 2.5 0 1 0 5 0 a2.5 2.5 0 1 0 -5 0zM272.5 65 a2.5 2.5 0 1 0 5 0 a2.5 2.5 0 1 0 -5 0zM952.5 45 a2.5 2.5 0 1 0 5 0 a2.5 2.5 0 1 0 -5 0zM912.5 25 a2.5 2.5 0 1 0 5 0 a2.5 2.5 0 1 0 -5 0zM492.5 25 a2.5 2.5 0 1 0 5 0 a2.5 2.5 0 1 0 -5 0zM492.5 65 a2.5 2.5 0 1 0 5 0 a2.5 2.5 0 1 0 -5 0zM482.5 55 a2.5 2.5 0 1 0 5 0 a2.5 2.5 0 1 0 -5 0zM322.5 55 a2.5 2.5 0 1 0 5 0 a2.5 2.5 0 1 0 -5 0zM952.5 55 a2.5 2.5 0 1 0 5 0 a2.5 2.5 0 1 0 -5 0zM942.5 35 a2.5 2.5 0 1 0 5 0 a2.5 2.5 0 1 0 -5 0zM462.5 55 a2.5 2.5 0 1 0 5 0 a2.5 2.5 0 1 0 -5 0zM812.5 55 a2.5 2.5 0 1 0 5 0 a2.5 2.5 0 1 0 -5 0zM892.5 65 a2.5 2.5 0 1 0 5 0 a2.5 2.5 0 1 0 -5 0zM972.5 25 a2.5 2.5 0 1 0 5 0 a2.5 2.5 0 1 0 -5 0zM812.5 25 a2.5 2.5 0 1 0 5 0 a2.5 2.5 0 1 0 -5 0zM72.5 95 a2.5 2.5 0 1 0 5 0 a2.5 2.5 0 1 0 -5 0zM642.5 45 a2.5 2.5 0 1 0 5 0 a2.5 2.5 0 1 0 -5 0zM1042.5 85 a2.5 2.5 0 1 0 5 0 a2.5 2.5 0 1 0 -5 0zM132.5 85 a2.5 2.5 0 1 0 5 0 a2.5 2.5 0 1 0 -5 0zM632.5 55 a2.5 2.5 0 1 0 5 0 a2.5 2.5 0 1 0 -5 0zM622.5 55 a2.5 2.5 0 1 0 5 0 a2.5 2.5 0 1 0 -5 0z" fill="rgba(8, 215, 23, 1)"></path></g></g><defs><mask id="SvgjsMask1206"><rect width="1440" height="560" fill="#ffffff"></rect></mask><mask id="SvgjsMask1207"><rect width="1440" height="560" fill="white"></rect><path d="M393.75 285 a1.25 1.25 0 1 0 2.5 0 a1.25 1.25 0 1 0 -2.5 0zM153.75 255 a1.25 1.25 0 1 0 2.5 0 a1.25 1.25 0 1 0 -2.5 0zM293.75 285 a1.25 1.25 0 1 0 2.5 0 a1.25 1.25 0 1 0 -2.5 0zM223.75 285 a1.25 1.25 0 1 0 2.5 0 a1.25 1.25 0 1 0 -2.5 0zM373.75 285 a1.25 1.25 0 1 0 2.5 0 a1.25 1.25 0 1 0 -2.5 0zM393.75 295 a1.25 1.25 0 1 0 2.5 0 a1.25 1.25 0 1 0 -2.5 0zM123.75 265 a1.25 1.25 0 1 0 2.5 0 a1.25 1.25 0 1 0 -2.5 0zM173.75 265 a1.25 1.25 0 1 0 2.5 0 a1.25 1.25 0 1 0 -2.5 0zM353.75 305 a1.25 1.25 0 1 0 2.5 0 a1.25 1.25 0 1 0 -2.5 0zM393.75 305 a1.25 1.25 0 1 0 2.5 0 a1.25 1.25 0 1 0 -2.5 0zM293.75 275 a1.25 1.25 0 1 0 2.5 0 a1.25 1.25 0 1 0 -2.5 0z" fill="black"></path><path d="M683.75 255 a1.25 1.25 0 1 0 2.5 0 a1.25 1.25 0 1 0 -2.5 0zM223.75 255 a1.25 1.25 0 1 0 2.5 0 a1.25 1.25 0 1 0 -2.5 0zM303.75 255 a1.25 1.25 0 1 0 2.5 0 a1.25 1.25 0 1 0 -2.5 0zM473.75 275 a1.25 1.25 0 1 0 2.5 0 a1.25 1.25 0 1 0 -2.5 0zM613.75 265 a1.25 1.25 0 1 0 2.5 0 a1.25 1.25 0 1 0 -2.5 0zM703.75 265 a1.25 1.25 0 1 0 2.5 0 a1.25 1.25 0 1 0 -2.5 0zM463.75 285 a1.25 1.25 0 1 0 2.5 0 a1.25 1.25 0 1 0 -2.5 0zM373.75 275 a1.25 1.25 0 1 0 2.5 0 a1.25 1.25 0 1 0 -2.5 0zM223.75 265 a1.25 1.25 0 1 0 2.5 0 a1.25 1.25 0 1 0 -2.5 0zM113.75 265 a1.25 1.25 0 1 0 2.5 0 a1.25 1.25 0 1 0 -2.5 0zM193.75 265 a1.25 1.25 0 1 0 2.5 0 a1.25 1.25 0 1 0 -2.5 0zM543.75 265 a1.25 1.25 0 1 0 2.5 0 a1.25 1.25 0 1 0 -2.5 0zM583.75 275 a1.25 1.25 0 1 0 2.5 0 a1.25 1.25 0 1 0 -2.5 0zM493.75 255 a1.25 1.25 0 1 0 2.5 0 a1.25 1.25 0 1 0 -2.5 0zM453.75 245 a1.25 1.25 0 1 0 2.5 0 a1.25 1.25 0 1 0 -2.5 0zM423.75 245 a1.25 1.25 0 1 0 2.5 0 a1.25 1.25 0 1 0 -2.5 0zM363.75 245 a1.25 1.25 0 1 0 2.5 0 a1.25 1.25 0 1 0 -2.5 0zM723.75 275 a1.25 1.25 0 1 0 2.5 0 a1.25 1.25 0 1 0 -2.5 0z" fill="black"></path><path d="M543.75 315 a1.25 1.25 0 1 0 2.5 0 a1.25 1.25 0 1 0 -2.5 0zM523.75 305 a1.25 1.25 0 1 0 2.5 0 a1.25 1.25 0 1 0 -2.5 0zM633.75 285 a1.25 1.25 0 1 0 2.5 0 a1.25 1.25 0 1 0 -2.5 0zM433.75 305 a1.25 1.25 0 1 0 2.5 0 a1.25 1.25 0 1 0 -2.5 0zM273.75 315 a1.25 1.25 0 1 0 2.5 0 a1.25 1.25 0 1 0 -2.5 0zM203.75 285 a1.25 1.25 0 1 0 2.5 0 a1.25 1.25 0 1 0 -2.5 0zM413.75 325 a1.25 1.25 0 1 0 2.5 0 a1.25 1.25 0 1 0 -2.5 0zM323.75 325 a1.25 1.25 0 1 0 2.5 0 a1.25 1.25 0 1 0 -2.5 0zM483.75 325 a1.25 1.25 0 1 0 2.5 0 a1.25 1.25 0 1 0 -2.5 0zM443.75 325 a1.25 1.25 0 1 0 2.5 0 a1.25 1.25 0 1 0 -2.5 0zM173.75 285 a1.25 1.25 0 1 0 2.5 0 a1.25 1.25 0 1 0 -2.5 0zM373.75 325 a1.25 1.25 0 1 0 2.5 0 a1.25 1.25 0 1 0 -2.5 0zM363.75 325 a1.25 1.25 0 1 0 2.5 0 a1.25 1.25 0 1 0 -2.5 0zM353.75 325 a1.25 1.25 0 1 0 2.5 0 a1.25 1.25 0 1 0 -2.5 0zM483.75 305 a1.25 1.25 0 1 0 2.5 0 a1.25 1.25 0 1 0 -2.5 0z" fill="black"></path><path d="M863.75 235 a1.25 1.25 0 1 0 2.5 0 a1.25 1.25 0 1 0 -2.5 0zM563.75 235 a1.25 1.25 0 1 0 2.5 0 a1.25 1.25 0 1 0 -2.5 0zM853.75 245 a1.25 1.25 0 1 0 2.5 0 a1.25 1.25 0 1 0 -2.5 0zM773.75 245 a1.25 1.25 0 1 0 2.5 0 a1.25 1.25 0 1 0 -2.5 0zM813.75 225 a1.25 1.25 0 1 0 2.5 0 a1.25 1.25 0 1 0 -2.5 0zM823.75 265 a1.25 1.25 0 1 0 2.5 0 a1.25 1.25 0 1 0 -2.5 0zM293.75 245 a1.25 1.25 0 1 0 2.5 0 a1.25 1.25 0 1 0 -2.5 0zM283.75 245 a1.25 1.25 0 1 0 2.5 0 a1.25 1.25 0 1 0 -2.5 0zM873.75 225 a1.25 1.25 0 1 0 2.5 0 a1.25 1.25 0 1 0 -2.5 0zM133.75 245 a1.25 1.25 0 1 0 2.5 0 a1.25 1.25 0 1 0 -2.5 0zM493.75 235 a1.25 1.25 0 1 0 2.5 0 a1.25 1.25 0 1 0 -2.5 0zM853.75 255 a1.25 1.25 0 1 0 2.5 0 a1.25 1.25 0 1 0 -2.5 0zM833.75 225 a1.25 1.25 0 1 0 2.5 0 a1.25 1.25 0 1 0 -2.5 0zM813.75 255 a1.25 1.25 0 1 0 2.5 0 a1.25 1.25 0 1 0 -2.5 0zM613.75 235 a1.25 1.25 0 1 0 2.5 0 a1.25 1.25 0 1 0 -2.5 0zM753.75 235 a1.25 1.25 0 1 0 2.5 0 a1.25 1.25 0 1 0 -2.5 0zM93.75 235 a1.25 1.25 0 1 0 2.5 0 a1.25 1.25 0 1 0 -2.5 0zM33.75 255 a1.25 1.25 0 1 0 2.5 0 a1.25 1.25 0 1 0 -2.5 0zM263.75 245 a1.25 1.25 0 1 0 2.5 0 a1.25 1.25 0 1 0 -2.5 0zM803.75 255 a1.25 1.25 0 1 0 2.5 0 a1.25 1.25 0 1 0 -2.5 0z" fill="black"></path><path d="M673.75 315 a1.25 1.25 0 1 0 2.5 0 a1.25 1.25 0 1 0 -2.5 0zM653.75 305 a1.25 1.25 0 1 0 2.5 0 a1.25 1.25 0 1 0 -2.5 0zM213.75 315 a1.25 1.25 0 1 0 2.5 0 a1.25 1.25 0 1 0 -2.5 0zM143.75 305 a1.25 1.25 0 1 0 2.5 0 a1.25 1.25 0 1 0 -2.5 0zM883.75 315 a1.25 1.25 0 1 0 2.5 0 a1.25 1.25 0 1 0 -2.5 0zM73.75 305 a1.25 1.25 0 1 0 2.5 0 a1.25 1.25 0 1 0 -2.5 0zM193.75 325 a1.25 1.25 0 1 0 2.5 0 a1.25 1.25 0 1 0 -2.5 0zM633.75 335 a1.25 1.25 0 1 0 2.5 0 a1.25 1.25 0 1 0 -2.5 0zM303.75 325 a1.25 1.25 0 1 0 2.5 0 a1.25 1.25 0 1 0 -2.5 0zM433.75 325 a1.25 1.25 0 1 0 2.5 0 a1.25 1.25 0 1 0 -2.5 0zM473.75 335 a1.25 1.25 0 1 0 2.5 0 a1.25 1.25 0 1 0 -2.5 0zM243.75 305 a1.25 1.25 0 1 0 2.5 0 a1.25 1.25 0 1 0 -2.5 0zM613.75 305 a1.25 1.25 0 1 0 2.5 0 a1.25 1.25 0 1 0 -2.5 0zM83.75 305 a1.25 1.25 0 1 0 2.5 0 a1.25 1.25 0 1 0 -2.5 0zM823.75 295 a1.25 1.25 0 1 0 2.5 0 a1.25 1.25 0 1 0 -2.5 0zM513.75 335 a1.25 1.25 0 1 0 2.5 0 a1.25 1.25 0 1 0 -2.5 0zM623.75 325 a1.25 1.25 0 1 0 2.5 0 a1.25 1.25 0 1 0 -2.5 0zM463.75 335 a1.25 1.25 0 1 0 2.5 0 a1.25 1.25 0 1 0 -2.5 0z" fill="black"></path><path d="M903.75 215 a1.25 1.25 0 1 0 2.5 0 a1.25 1.25 0 1 0 -2.5 0zM593.75 225 a1.25 1.25 0 1 0 2.5 0 a1.25 1.25 0 1 0 -2.5 0zM893.75 205 a1.25 1.25 0 1 0 2.5 0 a1.25 1.25 0 1 0 -2.5 0zM753.75 205 a1.25 1.25 0 1 0 2.5 0 a1.25 1.25 0 1 0 -2.5 0zM573.75 225 a1.25 1.25 0 1 0 2.5 0 a1.25 1.25 0 1 0 -2.5 0zM493.75 215 a1.25 1.25 0 1 0 2.5 0 a1.25 1.25 0 1 0 -2.5 0zM73.75 245 a1.25 1.25 0 1 0 2.5 0 a1.25 1.25 0 1 0 -2.5 0zM113.75 225 a1.25 1.25 0 1 0 2.5 0 a1.25 1.25 0 1 0 -2.5 0zM1063.75 215 a1.25 1.25 0 1 0 2.5 0 a1.25 1.25 0 1 0 -2.5 0zM83.75 235 a1.25 1.25 0 1 0 2.5 0 a1.25 1.25 0 1 0 -2.5 0zM913.75 225 a1.25 1.25 0 1 0 2.5 0 a1.25 1.25 0 1 0 -2.5 0zM523.75 225 a1.25 1.25 0 1 0 2.5 0 a1.25 1.25 0 1 0 -2.5 0zM803.75 205 a1.25 1.25 0 1 0 2.5 0 a1.25 1.25 0 1 0 -2.5 0zM723.75 195 a1.25 1.25 0 1 0 2.5 0 a1.25 1.25 0 1 0 -2.5 0zM483.75 215 a1.25 1.25 0 1 0 2.5 0 a1.25 1.25 0 1 0 -2.5 0zM903.75 235 a1.25 1.25 0 1 0 2.5 0 a1.25 1.25 0 1 0 -2.5 0zM103.75 225 a1.25 1.25 0 1 0 2.5 0 a1.25 1.25 0 1 0 -2.5 0zM603.75 235 a1.25 1.25 0 1 0 2.5 0 a1.25 1.25 0 1 0 -2.5 0zM553.75 215 a1.25 1.25 0 1 0 2.5 0 a1.25 1.25 0 1 0 -2.5 0zM793.75 205 a1.25 1.25 0 1 0 2.5 0 a1.25 1.25 0 1 0 -2.5 0z" fill="black"></path><path d="M143.75 325 a1.25 1.25 0 1 0 2.5 0 a1.25 1.25 0 1 0 -2.5 0zM93.75 315 a1.25 1.25 0 1 0 2.5 0 a1.25 1.25 0 1 0 -2.5 0zM43.75 315 a1.25 1.25 0 1 0 2.5 0 a1.25 1.25 0 1 0 -2.5 0zM143.75 335 a1.25 1.25 0 1 0 2.5 0 a1.25 1.25 0 1 0 -2.5 0zM33.75 315 a1.25 1.25 0 1 0 2.5 0 a1.25 1.25 0 1 0 -2.5 0z" fill="black"></path><path d="M413.75 215 a1.25 1.25 0 1 0 2.5 0 a1.25 1.25 0 1 0 -2.5 0zM63.75 225 a1.25 1.25 0 1 0 2.5 0 a1.25 1.25 0 1 0 -2.5 0zM43.75 225 a1.25 1.25 0 1 0 2.5 0 a1.25 1.25 0 1 0 -2.5 0z" fill="black"></path><path d="M113.75 335 a1.25 1.25 0 1 0 2.5 0 a1.25 1.25 0 1 0 -2.5 0z" fill="black"></path><path d="M1053.75 175 a1.25 1.25 0 1 0 2.5 0 a1.25 1.25 0 1 0 -2.5 0zM123.75 195 a1.25 1.25 0 1 0 2.5 0 a1.25 1.25 0 1 0 -2.5 0zM723.75 185 a1.25 1.25 0 1 0 2.5 0 a1.25 1.25 0 1 0 -2.5 0zM643.75 185 a1.25 1.25 0 1 0 2.5 0 a1.25 1.25 0 1 0 -2.5 0zM573.75 195 a1.25 1.25 0 1 0 2.5 0 a1.25 1.25 0 1 0 -2.5 0zM413.75 195 a1.25 1.25 0 1 0 2.5 0 a1.25 1.25 0 1 0 -2.5 0zM1043.75 165 a1.25 1.25 0 1 0 2.5 0 a1.25 1.25 0 1 0 -2.5 0zM143.75 195 a1.25 1.25 0 1 0 2.5 0 a1.25 1.25 0 1 0 -2.5 0zM253.75 195 a1.25 1.25 0 1 0 2.5 0 a1.25 1.25 0 1 0 -2.5 0zM803.75 175 a1.25 1.25 0 1 0 2.5 0 a1.25 1.25 0 1 0 -2.5 0zM1063.75 185 a1.25 1.25 0 1 0 2.5 0 a1.25 1.25 0 1 0 -2.5 0zM333.75 195 a1.25 1.25 0 1 0 2.5 0 a1.25 1.25 0 1 0 -2.5 0zM1063.75 205 a1.25 1.25 0 1 0 2.5 0 a1.25 1.25 0 1 0 -2.5 0zM943.75 165 a1.25 1.25 0 1 0 2.5 0 a1.25 1.25 0 1 0 -2.5 0zM113.75 195 a1.25 1.25 0 1 0 2.5 0 a1.25 1.25 0 1 0 -2.5 0zM863.75 165 a1.25 1.25 0 1 0 2.5 0 a1.25 1.25 0 1 0 -2.5 0zM593.75 185 a1.25 1.25 0 1 0 2.5 0 a1.25 1.25 0 1 0 -2.5 0zM703.75 185 a1.25 1.25 0 1 0 2.5 0 a1.25 1.25 0 1 0 -2.5 0zM173.75 195 a1.25 1.25 0 1 0 2.5 0 a1.25 1.25 0 1 0 -2.5 0zM683.75 185 a1.25 1.25 0 1 0 2.5 0 a1.25 1.25 0 1 0 -2.5 0zM943.75 185 a1.25 1.25 0 1 0 2.5 0 a1.25 1.25 0 1 0 -2.5 0zM393.75 195 a1.25 1.25 0 1 0 2.5 0 a1.25 1.25 0 1 0 -2.5 0zM493.75 185 a1.25 1.25 0 1 0 2.5 0 a1.25 1.25 0 1 0 -2.5 0zM773.75 195 a1.25 1.25 0 1 0 2.5 0 a1.25 1.25 0 1 0 -2.5 0zM483.75 185 a1.25 1.25 0 1 0 2.5 0 a1.25 1.25 0 1 0 -2.5 0zM673.75 195 a1.25 1.25 0 1 0 2.5 0 a1.25 1.25 0 1 0 -2.5 0zM633.75 205 a1.25 1.25 0 1 0 2.5 0 a1.25 1.25 0 1 0 -2.5 0z" fill="black"></path><path d="M1043.75 355 a1.25 1.25 0 1 0 2.5 0 a1.25 1.25 0 1 0 -2.5 0zM643.75 345 a1.25 1.25 0 1 0 2.5 0 a1.25 1.25 0 1 0 -2.5 0zM943.75 365 a1.25 1.25 0 1 0 2.5 0 a1.25 1.25 0 1 0 -2.5 0zM553.75 355 a1.25 1.25 0 1 0 2.5 0 a1.25 1.25 0 1 0 -2.5 0zM1063.75 345 a1.25 1.25 0 1 0 2.5 0 a1.25 1.25 0 1 0 -2.5 0zM1063.75 365 a1.25 1.25 0 1 0 2.5 0 a1.25 1.25 0 1 0 -2.5 0zM903.75 335 a1.25 1.25 0 1 0 2.5 0 a1.25 1.25 0 1 0 -2.5 0zM163.75 335 a1.25 1.25 0 1 0 2.5 0 a1.25 1.25 0 1 0 -2.5 0zM573.75 345 a1.25 1.25 0 1 0 2.5 0 a1.25 1.25 0 1 0 -2.5 0zM233.75 335 a1.25 1.25 0 1 0 2.5 0 a1.25 1.25 0 1 0 -2.5 0zM1063.75 335 a1.25 1.25 0 1 0 2.5 0 a1.25 1.25 0 1 0 -2.5 0zM493.75 355 a1.25 1.25 0 1 0 2.5 0 a1.25 1.25 0 1 0 -2.5 0zM133.75 335 a1.25 1.25 0 1 0 2.5 0 a1.25 1.25 0 1 0 -2.5 0zM1063.75 375 a1.25 1.25 0 1 0 2.5 0 a1.25 1.25 0 1 0 -2.5 0zM1053.75 325 a1.25 1.25 0 1 0 2.5 0 a1.25 1.25 0 1 0 -2.5 0zM213.75 335 a1.25 1.25 0 1 0 2.5 0 a1.25 1.25 0 1 0 -2.5 0zM943.75 315 a1.25 1.25 0 1 0 2.5 0 a1.25 1.25 0 1 0 -2.5 0zM893.75 355 a1.25 1.25 0 1 0 2.5 0 a1.25 1.25 0 1 0 -2.5 0zM863.75 335 a1.25 1.25 0 1 0 2.5 0 a1.25 1.25 0 1 0 -2.5 0zM453.75 345 a1.25 1.25 0 1 0 2.5 0 a1.25 1.25 0 1 0 -2.5 0zM203.75 335 a1.25 1.25 0 1 0 2.5 0 a1.25 1.25 0 1 0 -2.5 0zM913.75 345 a1.25 1.25 0 1 0 2.5 0 a1.25 1.25 0 1 0 -2.5 0z" fill="black"></path><path d="M823.75 165 a1.25 1.25 0 1 0 2.5 0 a1.25 1.25 0 1 0 -2.5 0zM243.75 175 a1.25 1.25 0 1 0 2.5 0 a1.25 1.25 0 1 0 -2.5 0zM203.75 175 a1.25 1.25 0 1 0 2.5 0 a1.25 1.25 0 1 0 -2.5 0zM783.75 155 a1.25 1.25 0 1 0 2.5 0 a1.25 1.25 0 1 0 -2.5 0zM973.75 135 a1.25 1.25 0 1 0 2.5 0 a1.25 1.25 0 1 0 -2.5 0zM313.75 185 a1.25 1.25 0 1 0 2.5 0 a1.25 1.25 0 1 0 -2.5 0zM383.75 175 a1.25 1.25 0 1 0 2.5 0 a1.25 1.25 0 1 0 -2.5 0zM363.75 175 a1.25 1.25 0 1 0 2.5 0 a1.25 1.25 0 1 0 -2.5 0zM463.75 185 a1.25 1.25 0 1 0 2.5 0 a1.25 1.25 0 1 0 -2.5 0zM363.75 195 a1.25 1.25 0 1 0 2.5 0 a1.25 1.25 0 1 0 -2.5 0zM593.75 155 a1.25 1.25 0 1 0 2.5 0 a1.25 1.25 0 1 0 -2.5 0zM163.75 175 a1.25 1.25 0 1 0 2.5 0 a1.25 1.25 0 1 0 -2.5 0zM333.75 175 a1.25 1.25 0 1 0 2.5 0 a1.25 1.25 0 1 0 -2.5 0zM453.75 195 a1.25 1.25 0 1 0 2.5 0 a1.25 1.25 0 1 0 -2.5 0zM323.75 195 a1.25 1.25 0 1 0 2.5 0 a1.25 1.25 0 1 0 -2.5 0zM273.75 185 a1.25 1.25 0 1 0 2.5 0 a1.25 1.25 0 1 0 -2.5 0zM423.75 175 a1.25 1.25 0 1 0 2.5 0 a1.25 1.25 0 1 0 -2.5 0zM963.75 145 a1.25 1.25 0 1 0 2.5 0 a1.25 1.25 0 1 0 -2.5 0zM103.75 195 a1.25 1.25 0 1 0 2.5 0 a1.25 1.25 0 1 0 -2.5 0zM353.75 195 a1.25 1.25 0 1 0 2.5 0 a1.25 1.25 0 1 0 -2.5 0zM13.75 225 a1.25 1.25 0 1 0 2.5 0 a1.25 1.25 0 1 0 -2.5 0zM413.75 175 a1.25 1.25 0 1 0 2.5 0 a1.25 1.25 0 1 0 -2.5 0z" fill="black"></path><path d="M873.75 355 a1.25 1.25 0 1 0 2.5 0 a1.25 1.25 0 1 0 -2.5 0zM853.75 355 a1.25 1.25 0 1 0 2.5 0 a1.25 1.25 0 1 0 -2.5 0zM713.75 355 a1.25 1.25 0 1 0 2.5 0 a1.25 1.25 0 1 0 -2.5 0zM283.75 355 a1.25 1.25 0 1 0 2.5 0 a1.25 1.25 0 1 0 -2.5 0zM243.75 355 a1.25 1.25 0 1 0 2.5 0 a1.25 1.25 0 1 0 -2.5 0zM223.75 355 a1.25 1.25 0 1 0 2.5 0 a1.25 1.25 0 1 0 -2.5 0zM253.75 345 a1.25 1.25 0 1 0 2.5 0 a1.25 1.25 0 1 0 -2.5 0zM273.75 355 a1.25 1.25 0 1 0 2.5 0 a1.25 1.25 0 1 0 -2.5 0zM653.75 355 a1.25 1.25 0 1 0 2.5 0 a1.25 1.25 0 1 0 -2.5 0zM213.75 355 a1.25 1.25 0 1 0 2.5 0 a1.25 1.25 0 1 0 -2.5 0zM183.75 355 a1.25 1.25 0 1 0 2.5 0 a1.25 1.25 0 1 0 -2.5 0zM173.75 355 a1.25 1.25 0 1 0 2.5 0 a1.25 1.25 0 1 0 -2.5 0zM593.75 365 a1.25 1.25 0 1 0 2.5 0 a1.25 1.25 0 1 0 -2.5 0z" fill="black"></path><path d="M553.75 165 a1.25 1.25 0 1 0 2.5 0 a1.25 1.25 0 1 0 -2.5 0zM423.75 155 a1.25 1.25 0 1 0 2.5 0 a1.25 1.25 0 1 0 -2.5 0zM373.75 155 a1.25 1.25 0 1 0 2.5 0 a1.25 1.25 0 1 0 -2.5 0zM553.75 155 a1.25 1.25 0 1 0 2.5 0 a1.25 1.25 0 1 0 -2.5 0zM413.75 135 a1.25 1.25 0 1 0 2.5 0 a1.25 1.25 0 1 0 -2.5 0zM483.75 155 a1.25 1.25 0 1 0 2.5 0 a1.25 1.25 0 1 0 -2.5 0zM303.75 145 a1.25 1.25 0 1 0 2.5 0 a1.25 1.25 0 1 0 -2.5 0zM153.75 175 a1.25 1.25 0 1 0 2.5 0 a1.25 1.25 0 1 0 -2.5 0zM363.75 145 a1.25 1.25 0 1 0 2.5 0 a1.25 1.25 0 1 0 -2.5 0zM323.75 175 a1.25 1.25 0 1 0 2.5 0 a1.25 1.25 0 1 0 -2.5 0zM313.75 175 a1.25 1.25 0 1 0 2.5 0 a1.25 1.25 0 1 0 -2.5 0zM353.75 145 a1.25 1.25 0 1 0 2.5 0 a1.25 1.25 0 1 0 -2.5 0zM283.75 165 a1.25 1.25 0 1 0 2.5 0 a1.25 1.25 0 1 0 -2.5 0zM273.75 155 a1.25 1.25 0 1 0 2.5 0 a1.25 1.25 0 1 0 -2.5 0z" fill="black"></path><path d="M893.75 365 a1.25 1.25 0 1 0 2.5 0 a1.25 1.25 0 1 0 -2.5 0zM983.75 385 a1.25 1.25 0 1 0 2.5 0 a1.25 1.25 0 1 0 -2.5 0zM893.75 395 a1.25 1.25 0 1 0 2.5 0 a1.25 1.25 0 1 0 -2.5 0zM433.75 375 a1.25 1.25 0 1 0 2.5 0 a1.25 1.25 0 1 0 -2.5 0zM163.75 375 a1.25 1.25 0 1 0 2.5 0 a1.25 1.25 0 1 0 -2.5 0zM893.75 375 a1.25 1.25 0 1 0 2.5 0 a1.25 1.25 0 1 0 -2.5 0zM633.75 375 a1.25 1.25 0 1 0 2.5 0 a1.25 1.25 0 1 0 -2.5 0zM883.75 375 a1.25 1.25 0 1 0 2.5 0 a1.25 1.25 0 1 0 -2.5 0zM383.75 375 a1.25 1.25 0 1 0 2.5 0 a1.25 1.25 0 1 0 -2.5 0zM623.75 375 a1.25 1.25 0 1 0 2.5 0 a1.25 1.25 0 1 0 -2.5 0zM333.75 375 a1.25 1.25 0 1 0 2.5 0 a1.25 1.25 0 1 0 -2.5 0zM603.75 375 a1.25 1.25 0 1 0 2.5 0 a1.25 1.25 0 1 0 -2.5 0zM153.75 375 a1.25 1.25 0 1 0 2.5 0 a1.25 1.25 0 1 0 -2.5 0zM263.75 355 a1.25 1.25 0 1 0 2.5 0 a1.25 1.25 0 1 0 -2.5 0z" fill="black"></path><path d="M283.75 145 a1.25 1.25 0 1 0 2.5 0 a1.25 1.25 0 1 0 -2.5 0zM263.75 155 a1.25 1.25 0 1 0 2.5 0 a1.25 1.25 0 1 0 -2.5 0z" fill="black"></path><path d="M313.75 375 a1.25 1.25 0 1 0 2.5 0 a1.25 1.25 0 1 0 -2.5 0zM273.75 385 a1.25 1.25 0 1 0 2.5 0 a1.25 1.25 0 1 0 -2.5 0zM23.75 375 a1.25 1.25 0 1 0 2.5 0 a1.25 1.25 0 1 0 -2.5 0zM213.75 385 a1.25 1.25 0 1 0 2.5 0 a1.25 1.25 0 1 0 -2.5 0zM243.75 385 a1.25 1.25 0 1 0 2.5 0 a1.25 1.25 0 1 0 -2.5 0zM13.75 375 a1.25 1.25 0 1 0 2.5 0 a1.25 1.25 0 1 0 -2.5 0zM293.75 385 a1.25 1.25 0 1 0 2.5 0 a1.25 1.25 0 1 0 -2.5 0zM143.75 375 a1.25 1.25 0 1 0 2.5 0 a1.25 1.25 0 1 0 -2.5 0z" fill="black"></path><path d="M983.75 115 a1.25 1.25 0 1 0 2.5 0 a1.25 1.25 0 1 0 -2.5 0zM643.75 95 a1.25 1.25 0 1 0 2.5 0 a1.25 1.25 0 1 0 -2.5 0zM893.75 95 a1.25 1.25 0 1 0 2.5 0 a1.25 1.25 0 1 0 -2.5 0zM793.75 95 a1.25 1.25 0 1 0 2.5 0 a1.25 1.25 0 1 0 -2.5 0zM723.75 85 a1.25 1.25 0 1 0 2.5 0 a1.25 1.25 0 1 0 -2.5 0zM733.75 105 a1.25 1.25 0 1 0 2.5 0 a1.25 1.25 0 1 0 -2.5 0zM483.75 105 a1.25 1.25 0 1 0 2.5 0 a1.25 1.25 0 1 0 -2.5 0zM863.75 125 a1.25 1.25 0 1 0 2.5 0 a1.25 1.25 0 1 0 -2.5 0zM573.75 105 a1.25 1.25 0 1 0 2.5 0 a1.25 1.25 0 1 0 -2.5 0zM713.75 105 a1.25 1.25 0 1 0 2.5 0 a1.25 1.25 0 1 0 -2.5 0zM443.75 105 a1.25 1.25 0 1 0 2.5 0 a1.25 1.25 0 1 0 -2.5 0zM683.75 95 a1.25 1.25 0 1 0 2.5 0 a1.25 1.25 0 1 0 -2.5 0zM853.75 115 a1.25 1.25 0 1 0 2.5 0 a1.25 1.25 0 1 0 -2.5 0zM73.75 165 a1.25 1.25 0 1 0 2.5 0 a1.25 1.25 0 1 0 -2.5 0zM783.75 95 a1.25 1.25 0 1 0 2.5 0 a1.25 1.25 0 1 0 -2.5 0zM393.75 135 a1.25 1.25 0 1 0 2.5 0 a1.25 1.25 0 1 0 -2.5 0zM703.75 105 a1.25 1.25 0 1 0 2.5 0 a1.25 1.25 0 1 0 -2.5 0zM333.75 145 a1.25 1.25 0 1 0 2.5 0 a1.25 1.25 0 1 0 -2.5 0zM843.75 115 a1.25 1.25 0 1 0 2.5 0 a1.25 1.25 0 1 0 -2.5 0zM533.75 125 a1.25 1.25 0 1 0 2.5 0 a1.25 1.25 0 1 0 -2.5 0zM1063.75 125 a1.25 1.25 0 1 0 2.5 0 a1.25 1.25 0 1 0 -2.5 0zM303.75 125 a1.25 1.25 0 1 0 2.5 0 a1.25 1.25 0 1 0 -2.5 0zM803.75 115 a1.25 1.25 0 1 0 2.5 0 a1.25 1.25 0 1 0 -2.5 0zM1063.75 105 a1.25 1.25 0 1 0 2.5 0 a1.25 1.25 0 1 0 -2.5 0zM1063.75 95 a1.25 1.25 0 1 0 2.5 0 a1.25 1.25 0 1 0 -2.5 0zM243.75 135 a1.25 1.25 0 1 0 2.5 0 a1.25 1.25 0 1 0 -2.5 0z" fill="black"></path><path d="M693.75 385 a1.25 1.25 0 1 0 2.5 0 a1.25 1.25 0 1 0 -2.5 0zM793.75 415 a1.25 1.25 0 1 0 2.5 0 a1.25 1.25 0 1 0 -2.5 0zM253.75 405 a1.25 1.25 0 1 0 2.5 0 a1.25 1.25 0 1 0 -2.5 0zM383.75 395 a1.25 1.25 0 1 0 2.5 0 a1.25 1.25 0 1 0 -2.5 0zM683.75 405 a1.25 1.25 0 1 0 2.5 0 a1.25 1.25 0 1 0 -2.5 0zM323.75 405 a1.25 1.25 0 1 0 2.5 0 a1.25 1.25 0 1 0 -2.5 0zM433.75 395 a1.25 1.25 0 1 0 2.5 0 a1.25 1.25 0 1 0 -2.5 0zM433.75 405 a1.25 1.25 0 1 0 2.5 0 a1.25 1.25 0 1 0 -2.5 0zM283.75 405 a1.25 1.25 0 1 0 2.5 0 a1.25 1.25 0 1 0 -2.5 0zM133.75 395 a1.25 1.25 0 1 0 2.5 0 a1.25 1.25 0 1 0 -2.5 0zM403.75 405 a1.25 1.25 0 1 0 2.5 0 a1.25 1.25 0 1 0 -2.5 0zM323.75 395 a1.25 1.25 0 1 0 2.5 0 a1.25 1.25 0 1 0 -2.5 0zM593.75 395 a1.25 1.25 0 1 0 2.5 0 a1.25 1.25 0 1 0 -2.5 0zM93.75 395 a1.25 1.25 0 1 0 2.5 0 a1.25 1.25 0 1 0 -2.5 0zM313.75 395 a1.25 1.25 0 1 0 2.5 0 a1.25 1.25 0 1 0 -2.5 0z" fill="black"></path><path d="M253.75 135 a1.25 1.25 0 1 0 2.5 0 a1.25 1.25 0 1 0 -2.5 0zM233.75 135 a1.25 1.25 0 1 0 2.5 0 a1.25 1.25 0 1 0 -2.5 0zM83.75 145 a1.25 1.25 0 1 0 2.5 0 a1.25 1.25 0 1 0 -2.5 0zM43.75 165 a1.25 1.25 0 1 0 2.5 0 a1.25 1.25 0 1 0 -2.5 0zM63.75 145 a1.25 1.25 0 1 0 2.5 0 a1.25 1.25 0 1 0 -2.5 0zM273.75 125 a1.25 1.25 0 1 0 2.5 0 a1.25 1.25 0 1 0 -2.5 0z" fill="black"></path><path d="M73.75 395 a1.25 1.25 0 1 0 2.5 0 a1.25 1.25 0 1 0 -2.5 0z" fill="black"></path><path d="M523.75 75 a1.25 1.25 0 1 0 2.5 0 a1.25 1.25 0 1 0 -2.5 0zM453.75 95 a1.25 1.25 0 1 0 2.5 0 a1.25 1.25 0 1 0 -2.5 0zM383.75 105 a1.25 1.25 0 1 0 2.5 0 a1.25 1.25 0 1 0 -2.5 0zM373.75 105 a1.25 1.25 0 1 0 2.5 0 a1.25 1.25 0 1 0 -2.5 0zM413.75 105 a1.25 1.25 0 1 0 2.5 0 a1.25 1.25 0 1 0 -2.5 0zM503.75 85 a1.25 1.25 0 1 0 2.5 0 a1.25 1.25 0 1 0 -2.5 0zM643.75 65 a1.25 1.25 0 1 0 2.5 0 a1.25 1.25 0 1 0 -2.5 0zM363.75 115 a1.25 1.25 0 1 0 2.5 0 a1.25 1.25 0 1 0 -2.5 0zM543.75 65 a1.25 1.25 0 1 0 2.5 0 a1.25 1.25 0 1 0 -2.5 0zM433.75 95 a1.25 1.25 0 1 0 2.5 0 a1.25 1.25 0 1 0 -2.5 0zM423.75 85 a1.25 1.25 0 1 0 2.5 0 a1.25 1.25 0 1 0 -2.5 0zM353.75 105 a1.25 1.25 0 1 0 2.5 0 a1.25 1.25 0 1 0 -2.5 0zM643.75 55 a1.25 1.25 0 1 0 2.5 0 a1.25 1.25 0 1 0 -2.5 0zM403.75 105 a1.25 1.25 0 1 0 2.5 0 a1.25 1.25 0 1 0 -2.5 0z" fill="black"></path><path d="M703.75 425 a1.25 1.25 0 1 0 2.5 0 a1.25 1.25 0 1 0 -2.5 0zM393.75 425 a1.25 1.25 0 1 0 2.5 0 a1.25 1.25 0 1 0 -2.5 0zM473.75 405 a1.25 1.25 0 1 0 2.5 0 a1.25 1.25 0 1 0 -2.5 0zM423.75 425 a1.25 1.25 0 1 0 2.5 0 a1.25 1.25 0 1 0 -2.5 0zM743.75 435 a1.25 1.25 0 1 0 2.5 0 a1.25 1.25 0 1 0 -2.5 0zM553.75 415 a1.25 1.25 0 1 0 2.5 0 a1.25 1.25 0 1 0 -2.5 0zM363.75 425 a1.25 1.25 0 1 0 2.5 0 a1.25 1.25 0 1 0 -2.5 0zM513.75 415 a1.25 1.25 0 1 0 2.5 0 a1.25 1.25 0 1 0 -2.5 0zM463.75 405 a1.25 1.25 0 1 0 2.5 0 a1.25 1.25 0 1 0 -2.5 0zM503.75 415 a1.25 1.25 0 1 0 2.5 0 a1.25 1.25 0 1 0 -2.5 0zM353.75 425 a1.25 1.25 0 1 0 2.5 0 a1.25 1.25 0 1 0 -2.5 0zM453.75 405 a1.25 1.25 0 1 0 2.5 0 a1.25 1.25 0 1 0 -2.5 0zM563.75 405 a1.25 1.25 0 1 0 2.5 0 a1.25 1.25 0 1 0 -2.5 0zM223.75 405 a1.25 1.25 0 1 0 2.5 0 a1.25 1.25 0 1 0 -2.5 0zM943.75 405 a1.25 1.25 0 1 0 2.5 0 a1.25 1.25 0 1 0 -2.5 0z" fill="black"></path><path d="M133.75 125 a1.25 1.25 0 1 0 2.5 0 a1.25 1.25 0 1 0 -2.5 0z" fill="black"></path><path d="M673.75 425 a1.25 1.25 0 1 0 2.5 0 a1.25 1.25 0 1 0 -2.5 0zM723.75 445 a1.25 1.25 0 1 0 2.5 0 a1.25 1.25 0 1 0 -2.5 0zM203.75 425 a1.25 1.25 0 1 0 2.5 0 a1.25 1.25 0 1 0 -2.5 0zM473.75 435 a1.25 1.25 0 1 0 2.5 0 a1.25 1.25 0 1 0 -2.5 0zM563.75 435 a1.25 1.25 0 1 0 2.5 0 a1.25 1.25 0 1 0 -2.5 0zM333.75 425 a1.25 1.25 0 1 0 2.5 0 a1.25 1.25 0 1 0 -2.5 0zM513.75 435 a1.25 1.25 0 1 0 2.5 0 a1.25 1.25 0 1 0 -2.5 0zM153.75 425 a1.25 1.25 0 1 0 2.5 0 a1.25 1.25 0 1 0 -2.5 0zM313.75 435 a1.25 1.25 0 1 0 2.5 0 a1.25 1.25 0 1 0 -2.5 0zM143.75 425 a1.25 1.25 0 1 0 2.5 0 a1.25 1.25 0 1 0 -2.5 0zM453.75 435 a1.25 1.25 0 1 0 2.5 0 a1.25 1.25 0 1 0 -2.5 0zM193.75 425 a1.25 1.25 0 1 0 2.5 0 a1.25 1.25 0 1 0 -2.5 0zM173.75 425 a1.25 1.25 0 1 0 2.5 0 a1.25 1.25 0 1 0 -2.5 0zM493.75 435 a1.25 1.25 0 1 0 2.5 0 a1.25 1.25 0 1 0 -2.5 0z" fill="black"></path><path d="M403.75 85 a1.25 1.25 0 1 0 2.5 0 a1.25 1.25 0 1 0 -2.5 0zM313.75 95 a1.25 1.25 0 1 0 2.5 0 a1.25 1.25 0 1 0 -2.5 0zM303.75 85 a1.25 1.25 0 1 0 2.5 0 a1.25 1.25 0 1 0 -2.5 0zM23.75 145 a1.25 1.25 0 1 0 2.5 0 a1.25 1.25 0 1 0 -2.5 0zM33.75 135 a1.25 1.25 0 1 0 2.5 0 a1.25 1.25 0 1 0 -2.5 0zM233.75 95 a1.25 1.25 0 1 0 2.5 0 a1.25 1.25 0 1 0 -2.5 0zM213.75 105 a1.25 1.25 0 1 0 2.5 0 a1.25 1.25 0 1 0 -2.5 0zM203.75 105 a1.25 1.25 0 1 0 2.5 0 a1.25 1.25 0 1 0 -2.5 0z" fill="black"></path><path d="M863.75 465 a1.25 1.25 0 1 0 2.5 0 a1.25 1.25 0 1 0 -2.5 0zM613.75 445 a1.25 1.25 0 1 0 2.5 0 a1.25 1.25 0 1 0 -2.5 0zM93.75 445 a1.25 1.25 0 1 0 2.5 0 a1.25 1.25 0 1 0 -2.5 0zM103.75 455 a1.25 1.25 0 1 0 2.5 0 a1.25 1.25 0 1 0 -2.5 0zM413.75 455 a1.25 1.25 0 1 0 2.5 0 a1.25 1.25 0 1 0 -2.5 0zM133.75 455 a1.25 1.25 0 1 0 2.5 0 a1.25 1.25 0 1 0 -2.5 0zM1063.75 415 a1.25 1.25 0 1 0 2.5 0 a1.25 1.25 0 1 0 -2.5 0zM943.75 445 a1.25 1.25 0 1 0 2.5 0 a1.25 1.25 0 1 0 -2.5 0zM973.75 485 a1.25 1.25 0 1 0 2.5 0 a1.25 1.25 0 1 0 -2.5 0zM403.75 465 a1.25 1.25 0 1 0 2.5 0 a1.25 1.25 0 1 0 -2.5 0zM633.75 465 a1.25 1.25 0 1 0 2.5 0 a1.25 1.25 0 1 0 -2.5 0zM693.75 445 a1.25 1.25 0 1 0 2.5 0 a1.25 1.25 0 1 0 -2.5 0zM683.75 475 a1.25 1.25 0 1 0 2.5 0 a1.25 1.25 0 1 0 -2.5 0zM233.75 475 a1.25 1.25 0 1 0 2.5 0 a1.25 1.25 0 1 0 -2.5 0zM213.75 445 a1.25 1.25 0 1 0 2.5 0 a1.25 1.25 0 1 0 -2.5 0zM293.75 475 a1.25 1.25 0 1 0 2.5 0 a1.25 1.25 0 1 0 -2.5 0zM453.75 475 a1.25 1.25 0 1 0 2.5 0 a1.25 1.25 0 1 0 -2.5 0zM793.75 465 a1.25 1.25 0 1 0 2.5 0 a1.25 1.25 0 1 0 -2.5 0zM833.75 455 a1.25 1.25 0 1 0 2.5 0 a1.25 1.25 0 1 0 -2.5 0zM683.75 445 a1.25 1.25 0 1 0 2.5 0 a1.25 1.25 0 1 0 -2.5 0zM233.75 445 a1.25 1.25 0 1 0 2.5 0 a1.25 1.25 0 1 0 -2.5 0zM693.75 465 a1.25 1.25 0 1 0 2.5 0 a1.25 1.25 0 1 0 -2.5 0zM773.75 465 a1.25 1.25 0 1 0 2.5 0 a1.25 1.25 0 1 0 -2.5 0z" fill="black"></path><path d="M1013.75 25 a1.25 1.25 0 1 0 2.5 0 a1.25 1.25 0 1 0 -2.5 0zM503.75 45 a1.25 1.25 0 1 0 2.5 0 a1.25 1.25 0 1 0 -2.5 0zM1043.75 45 a1.25 1.25 0 1 0 2.5 0 a1.25 1.25 0 1 0 -2.5 0zM563.75 25 a1.25 1.25 0 1 0 2.5 0 a1.25 1.25 0 1 0 -2.5 0zM663.75 45 a1.25 1.25 0 1 0 2.5 0 a1.25 1.25 0 1 0 -2.5 0zM203.75 85 a1.25 1.25 0 1 0 2.5 0 a1.25 1.25 0 1 0 -2.5 0zM273.75 65 a1.25 1.25 0 1 0 2.5 0 a1.25 1.25 0 1 0 -2.5 0zM953.75 45 a1.25 1.25 0 1 0 2.5 0 a1.25 1.25 0 1 0 -2.5 0zM913.75 25 a1.25 1.25 0 1 0 2.5 0 a1.25 1.25 0 1 0 -2.5 0zM493.75 25 a1.25 1.25 0 1 0 2.5 0 a1.25 1.25 0 1 0 -2.5 0zM493.75 65 a1.25 1.25 0 1 0 2.5 0 a1.25 1.25 0 1 0 -2.5 0zM483.75 55 a1.25 1.25 0 1 0 2.5 0 a1.25 1.25 0 1 0 -2.5 0zM323.75 55 a1.25 1.25 0 1 0 2.5 0 a1.25 1.25 0 1 0 -2.5 0zM953.75 55 a1.25 1.25 0 1 0 2.5 0 a1.25 1.25 0 1 0 -2.5 0zM943.75 35 a1.25 1.25 0 1 0 2.5 0 a1.25 1.25 0 1 0 -2.5 0zM463.75 55 a1.25 1.25 0 1 0 2.5 0 a1.25 1.25 0 1 0 -2.5 0zM813.75 55 a1.25 1.25 0 1 0 2.5 0 a1.25 1.25 0 1 0 -2.5 0zM893.75 65 a1.25 1.25 0 1 0 2.5 0 a1.25 1.25 0 1 0 -2.5 0zM973.75 25 a1.25 1.25 0 1 0 2.5 0 a1.25 1.25 0 1 0 -2.5 0zM813.75 25 a1.25 1.25 0 1 0 2.5 0 a1.25 1.25 0 1 0 -2.5 0zM73.75 95 a1.25 1.25 0 1 0 2.5 0 a1.25 1.25 0 1 0 -2.5 0zM643.75 45 a1.25 1.25 0 1 0 2.5 0 a1.25 1.25 0 1 0 -2.5 0zM1043.75 85 a1.25 1.25 0 1 0 2.5 0 a1.25 1.25 0 1 0 -2.5 0zM133.75 85 a1.25 1.25 0 1 0 2.5 0 a1.25 1.25 0 1 0 -2.5 0zM633.75 55 a1.25 1.25 0 1 0 2.5 0 a1.25 1.25 0 1 0 -2.5 0zM623.75 55 a1.25 1.25 0 1 0 2.5 0 a1.25 1.25 0 1 0 -2.5 0z" fill="black"></path></mask></defs></svg>